<svg
    version="1.1"
    id="Layer_1"
    xmlns="http://www.w3.org/2000/svg"
    xmlns:xlink="http://www.w3.org/1999/xlink"
    width="100%"
    height="100%"
    viewBox="0 0 1332.014 947.007"
    enable-background="new 0 0 1332.014 947.007"
    xml:space="preserve"
    style="width:100%;height:100%;display:block"
>
      <g id="farm_house">
    <polygon fill="#E5E5E5" points="922.566,625.847 922.566,762.16 730.201,762.16 730.201,625.919 825.803,557.113 	"></polygon>
    <polygon fill="#FF6E40" points="904.326,634.394 904.326,761.724 749.68,761.724 749.68,634.394 826.508,579.107 	"></polygon>
    <path
      fill="#8B6E62"
      d="M901.471,761.724h-3.479v-131.82l3.479,2.479V761.724z M879.002,761.724h-3.504V613.919l3.504,2.48V761.724
		z M856.516,761.724h-3.479V597.953l3.479,2.482V761.724z M834.029,761.724h-3.484V581.986l3.484,2.48V761.724z M811.561,761.724
		h-3.504V592.376l3.504-2.514V761.724z M789.074,761.724h-3.484V608.542l3.484-2.496V761.724z M766.588,761.724h-3.484V624.726
		l3.484-2.498V761.724z"></path>
    <polygon fill="#FFFFFF" points="730.184,682.761 922.566,682.761 922.566,695.705 730.184,695.705 	"></polygon>
    <polygon fill="#747474" points="800.404,720.396 852.365,720.396 852.365,762.16 800.404,762.16 	"></polygon>
    <polygon fill="#FFFFFF" points="800.404,720.396 774.432,720.396 774.432,762.16 800.404,762.16 	"></polygon>
    <polygon fill="#BD360C" points="796.215,724.361 778.602,724.361 778.602,758.175 796.215,758.175 	"></polygon>
    <g>
      <polygon
        fill="#FFFFFF"
        points="780.469,758.123 787.398,744.978 794.273,757.994 796.367,761.958 800.537,761.904
			789.494,741.013 798.232,724.47 800.328,720.523 796.158,720.486 787.398,737.031 778.602,720.361 774.432,720.396
			776.508,724.343 785.305,741.013 774.205,762.031 778.373,762.087 		"></polygon>
      <polygon fill="#FFFFFF" points="852.289,720.269 878.26,720.269 878.26,762.031 852.289,762.031 		"></polygon>
    </g>
    <polygon fill="#BD360C" points="856.459,724.251 874.09,724.251 874.09,758.066 856.459,758.066 	"></polygon>
    <g>
      <polygon
        fill="#FFFFFF"
        points="872.225,757.994 865.293,744.853 858.4,757.886 856.307,761.832 852.137,761.796 863.18,740.888
			854.439,724.343 852.365,720.396 856.535,720.361 865.293,736.923 874.09,720.234 878.26,720.269 876.166,724.234
			867.369,740.888 878.488,761.904 874.299,761.958 		"></polygon>
      <path fill="#FFFFFF" d="M799.451,635.533c14.223-15.838,28.656-14.754,43.297,0v34.395h-43.297
			C799.451,658.468,799.451,646.992,799.451,635.533z"></path>
    </g>
    <path fill="#747474" d="M804.402,637.306c0,9.305,0,18.609,0,27.912h33.396v-27.785
		C826.184,626.408,815.789,625.451,804.402,637.306z"></path>
    <path fill="#785448" d="M787.703,669.927h16.699v-31.369c-5.789-6.191-11.252-9.576-16.699-9.76V669.927z"></path>
    <polygon fill="#F3501E" points="1080.621,555.339 1183.305,555.339 1183.305,741.775 1080.621,741.775 	"></polygon>
    <polygon fill="#FF6E40" points="922.566,642.267 1123.063,651.228 1123.063,762.103 922.566,762.16 	"></polygon>
    <path
      fill="#8B6E62"
      d="M929.555,642.574l3.484,0.164V762.16h-3.484V642.574z M952.021,643.589l3.504,0.162v118.391h-3.504V643.589
		z M974.508,644.583l3.504,0.164v117.395h-3.504V644.583z M996.977,645.597l3.504,0.162V762.14h-3.504V645.597z M1019.463,646.611
		l3.504,0.146v115.365h-3.504V646.611z M1041.949,647.607l3.479,0.164v114.352h-3.479V647.607z M1064.436,648.621l3.484,0.146
		v113.338h-3.484V648.621z M1086.924,649.617l3.484,0.162v112.326h-3.484V649.617z M1109.391,650.63l3.504,0.143v111.332h-3.504
		V650.63z"></path>
    <path fill="#785448" d="M854.498,669.927h-16.699v-31.369c5.771-6.191,11.252-9.576,16.699-9.76V669.927z"></path>
    <g>
      <path fill="#8B6E62" d="M785.381,668.462l2.322,1.467V628.8c0.057,0,0.248,0,0.188,0l-2.514,0.361v39.301H785.381L785.381,668.462
			z"></path>
      <path fill="#8B6E62" d="M857.029,668.443l-2.322,1.484v-41.146c-0.076,0-0.266,0-0.209,0.021l2.533,0.342v39.303L857.029,668.443
			L857.029,668.443z"></path>
    </g>
    <polygon fill="#FFFFFF" points="983.533,674.126 939.76,674.126 939.76,709.228 983.533,709.228 	"></polygon>
    <polygon fill="#BBBBBB" points="922.566,642.267 1123.063,651.228 1123.063,662.125 922.566,662.179 	"></polygon>
    <polygon fill="#DFDFDF" points="825.803,557.113 988.447,557.294 1123.063,651.228 959.506,651.3 	"></polygon>
    <path
      fill="#BBBBBB"
      d="M825.803,557.113l86.652,0.092h-86.521L825.803,557.113z M1002.822,567.324l2.686,1.865H842.961
		l-2.646-1.865H1002.822z M1019.996,579.306l2.666,1.863H859.943l-2.627-1.863H1019.996z M1037.17,591.291l2.666,1.865H876.965
		l-2.646-1.865H1037.17z M1054.346,603.275l2.666,1.865H893.969l-2.646-1.865H1054.346z M1071.5,615.257l2.686,1.865H910.99
		l-2.646-1.865H1071.5z M1088.674,627.242l2.666,1.865H927.992l-2.646-1.865H1088.674z M1105.85,639.224l2.666,1.844h-163.52
		l-2.646-1.844H1105.85z M1123.023,651.208l0.034,0.02L959.502,651.3l-0.152-0.094h163.675L1123.023,651.208L1123.023,651.208z"></path>
    <polygon fill="#FF3C00" points="976.508,677.458 946.805,677.458 946.805,705.896 976.508,705.896 	"></polygon>
    <g>
      <polygon
        fill="#FFFFFF"
        points="949.947,705.843 961.637,694.8 973.232,705.734 976.736,709.064 983.781,709.027 965.18,691.451
			979.896,677.548 983.4,674.234 976.375,674.199 961.637,688.121 946.805,674.089 939.76,674.126 943.283,677.458 958.115,691.451
			939.398,709.119 946.443,709.156 		"></polygon>
      <polygon fill="#FFFFFF" points="1045.111,674.126 1001.336,674.126 1001.336,709.228 1045.111,709.228 		"></polygon>
    </g>
    <polygon fill="#EDEDED" points="726.584,650.72 825.879,579.542 927.879,651.3 958.762,651.3 958.762,650.83 825.803,557.113
		695.871,650.322 695.871,650.72 	"></polygon>
    <polygon fill="#FF3C00" points="1038.066,677.458 1008.381,677.458 1008.381,705.896 1038.066,705.896 	"></polygon>
    <g>
      <polygon
        fill="#FFFFFF"
        points="1011.523,705.843 1023.215,694.8 1034.791,705.734 1038.313,709.064 1045.34,709.027
			1026.756,691.451 1041.455,677.548 1044.977,674.234 1037.932,674.199 1023.215,688.121 1008.381,674.089 1001.336,674.126
			1004.859,677.458 1019.672,691.451 1000.975,709.119 1008,709.156 		"></polygon>
      <polygon fill="#FFFFFF" points="1106.668,674.126 1062.914,674.126 1062.914,709.228 1106.668,709.228 		"></polygon>
    </g>
    <polygon fill="#FF3C00" points="1099.643,677.458 1069.939,677.458 1069.939,705.896 1099.643,705.896 	"></polygon>
    <polygon
      fill="#FFFFFF"
      points="1073.1,705.843 1084.771,694.8 1096.367,705.734 1099.889,709.064 1106.916,709.027
		1088.313,691.451 1103.031,677.548 1106.535,674.234 1099.508,674.199 1084.771,688.121 1069.939,674.089 1062.914,674.126
		1066.416,677.458 1081.25,691.451 1062.533,709.119 1069.578,709.156 	"></polygon>
    <polygon fill="#E54A18" points="1131.973,555.339 1183.305,555.339 1183.305,741.775 1131.973,741.775 	"></polygon>
    <path
      fill="#DFDFDF"
      d="M1131.973,496.308c36.576,0,66.854,25.561,72.162,58.924c0.438,2.715-0.324,5.215-2.209,7.297
		s-4.379,3.168-7.254,3.168h-125.4c-2.895,0-5.389-1.088-7.254-3.168c-1.899-2.082-2.646-4.578-2.209-7.297
		C1065.104,521.869,1095.396,496.308,1131.973,496.308z"></path>
    <path
      fill="#FFFFFF"
      d="M1138.656,585.335L1138.656,585.335c2.381,0,4.322,1.865,4.322,4.131v5.664c0,2.064,1.771,3.73,3.938,3.73
		h14.396c2.171,0,3.923-1.666,3.923-3.73v-5.664c0-2.266,1.961-4.131,4.342-4.131l0,0c2.381,0,4.322,1.865,4.322,4.131v148.201
		c0,2.266-1.941,4.109-4.322,4.109l0,0c-2.381,0-4.342-1.85-4.342-4.109v-8.471c0-2.064-1.752-3.746-3.923-3.746h-14.396
		c-2.17,0-3.938,1.684-3.938,3.746v8.471c0,2.266-1.941,4.109-4.322,4.109l0,0c-2.398,0-4.342-1.85-4.342-4.109V589.464
		C1134.314,587.201,1136.256,585.335,1138.656,585.335z M1165.236,717.574v-5.342c0-1.014-0.875-1.846-1.941-1.846h-18.355
		c-1.086,0-1.961,0.832-1.961,1.846v5.342c0,1.012,0.875,1.844,1.961,1.844h18.355
		C1164.359,719.419,1165.236,718.587,1165.236,717.574z M1165.236,702.494v-5.322c0-1.014-0.875-1.846-1.941-1.846h-18.355
		c-1.086,0-1.961,0.832-1.961,1.846v5.322c0,1.031,0.875,1.863,1.961,1.863h18.355
		C1164.359,704.357,1165.236,703.525,1165.236,702.494z M1165.236,687.431v-5.322c0-1.033-0.875-1.865-1.941-1.865h-18.355
		c-1.086,0-1.961,0.832-1.961,1.865v5.322c0,1.012,0.875,1.863,1.961,1.863h18.355
		C1164.359,689.296,1165.236,688.445,1165.236,687.431z M1165.236,672.351v-5.32c0-1.014-0.875-1.846-1.941-1.846h-18.355
		c-1.086,0-1.961,0.832-1.961,1.846v5.32c0,1.033,0.875,1.863,1.961,1.863h18.355
		C1164.359,674.218,1165.236,673.384,1165.236,672.351z M1165.236,657.292v-5.322c0-1.033-0.875-1.865-1.941-1.865h-18.355
		c-1.086,0-1.961,0.832-1.961,1.865v5.322c0,1.014,0.875,1.844,1.961,1.844h18.355
		C1164.359,659.138,1165.236,658.304,1165.236,657.292z M1165.236,642.212v-5.32c0-1.016-0.875-1.865-1.941-1.865h-18.355
		c-1.086,0-1.961,0.852-1.961,1.865v5.32c0,1.033,0.875,1.865,1.961,1.865h18.355
		C1164.359,644.078,1165.236,643.246,1165.236,642.212z M1165.236,627.152v-5.322c0-1.033-0.875-1.865-1.941-1.865h-18.355
		c-1.086,0-1.961,0.832-1.961,1.865v5.322c0,1.014,0.875,1.863,1.961,1.863h18.355
		C1164.359,629.015,1165.236,628.166,1165.236,627.152z M1165.236,612.072v-5.322c0-1.033-0.875-1.846-1.941-1.846h-18.355
		c-1.086,0-1.961,0.814-1.961,1.846v5.322c0,1.031,0.875,1.863,1.961,1.863h18.355
		C1164.359,613.937,1165.236,613.103,1165.236,612.072z"></path>
    <path
      fill="#E5E5E5"
      d="M1154.117,598.857h7.197c2.17,0,3.922-1.664,3.922-3.729v-5.666c0-2.264,1.961-4.129,4.342-4.129l0,0
		c2.381,0,4.322,1.865,4.322,4.129v148.205c0,2.262-1.941,4.107-4.322,4.107l0,0c-2.381,0-4.342-1.85-4.342-4.107v-8.473
		c0-2.064-1.752-3.746-3.922-3.746h-7.197v-6.027h9.178c1.066,0,1.941-0.832,1.941-1.844v-5.342c0-1.018-0.875-1.85-1.941-1.85
		h-9.178v-6.023h9.178c1.066,0,1.941-0.832,1.941-1.863v-5.322c0-1.014-0.875-1.846-1.941-1.846h-9.178v-6.027h9.178
		c1.066,0,1.941-0.854,1.941-1.863v-5.324c0-1.033-0.875-1.865-1.941-1.865h-9.178v-6.021h9.178c1.066,0,1.941-0.832,1.941-1.865
		v-5.322c0-1.014-0.875-1.846-1.941-1.846h-9.178v-6.043h9.178c1.066,0,1.941-0.832,1.941-1.852v-5.316
		c0-1.033-0.875-1.865-1.941-1.865h-9.178v-6.029h9.178c1.066,0,1.941-0.832,1.941-1.863v-5.32c0-1.016-0.875-1.865-1.941-1.865
		h-9.178v-6.01h9.178c1.066,0,1.941-0.852,1.941-1.865v-5.322c0-1.027-0.875-1.859-1.941-1.859h-9.178v-6.027h9.178
		c1.066,0,1.941-0.832,1.941-1.865v-5.322c0-1.031-0.875-1.844-1.941-1.844h-9.178V598.857z"></path>
    <polygon fill="#9F877E" points="1095.34,589.843 1120.129,589.843 1120.129,624.816 1095.34,624.816 	"></polygon>
    <polygon fill="#BBA9A3" points="1098.938,593.263 1116.531,593.263 1116.531,621.394 1098.938,621.394 	"></polygon>
    <g id="flowers">
      <path
        fill="#FFFFFF"
        d="M621.594,781.484c0,0-2.475-7.838-6.354-6.66C611.332,776,611.846,778.988,621.594,781.484z
			 M625.879,781.484c0,0-2.514-10.01,3.104-8.563C634.58,774.371,625.879,781.484,625.879,781.484z M628.24,783.894
			c2.356,1.246,12.758,0.758,10.645-2.826C636.789,777.486,628.24,783.894,628.24,783.894z M626.24,786.373
			c0,0-0.519,8.904,4.531,7.24C635.799,791.964,626.24,786.373,626.24,786.373z M622.318,785.904c0,0-11.938,4.27-6.816,7.438
			C620.604,796.527,622.318,785.904,622.318,785.904z M620.775,784.236c0,0-10.646-4.469-12.109,0
			C607.219,788.724,620.775,784.236,620.775,784.236z"></path>
      <path fill="#FFE900" d="M624.432,780.017c2.322,0,4.189,1.594,4.189,3.549c0,1.973-1.865,3.566-4.189,3.566
			c-2.305,0-4.17-1.596-4.17-3.566C620.262,781.611,622.127,780.017,624.432,780.017z"></path>
      <path fill="#FF3C00" d="M624.432,782.156c0.914,0,1.681,0.633,1.681,1.408c0,0.777-0.767,1.412-1.681,1.412
			s-1.651-0.635-1.651-1.412C622.776,782.789,623.518,782.156,624.432,782.156z"></path>
      <path
        fill="#FFFFFF"
        d="M651.469,795.261c0,0-2.457-7.838-6.354-6.66C641.225,789.775,641.721,792.781,651.469,795.261z
			 M655.771,795.261c0,0-2.519-10.01,3.104-8.563C664.473,788.146,655.771,795.261,655.771,795.261z M658.133,797.669
			c2.361,1.248,12.758,0.76,10.646-2.826C666.662,791.259,658.133,797.669,658.133,797.669z M656.133,800.148
			c0,0-0.514,8.904,4.512,7.26C665.691,805.742,656.133,800.148,656.133,800.148z M652.211,799.677c0,0-11.938,4.271-6.836,7.439
			C650.498,810.304,652.211,799.677,652.211,799.677z M650.67,798.013c0,0-10.643-4.471-12.109,0
			C637.094,802.501,650.67,798.013,650.67,798.013z"></path>
      <path fill="#FFE900" d="M654.324,793.794c2.322,0,4.188,1.594,4.188,3.547c0,1.975-1.86,3.564-4.188,3.564
			c-2.31,0-4.189-1.598-4.189-3.564C650.137,795.388,652.021,793.794,654.324,793.794z"></path>
      <path fill="#FF3C00" d="M654.324,795.929c0.934,0,1.676,0.635,1.676,1.41c0,0.777-0.742,1.41-1.676,1.41
			c-0.914,0-1.676-0.633-1.676-1.41C652.648,796.564,653.41,795.929,654.324,795.929z"></path>
      <path
        fill="#FFFFFF"
        d="M646.043,762.769c0,0-2.457-8.221-6.359-7.676C635.779,755.654,636.293,758.73,646.043,762.769z
			 M650.346,763.455c0,0-2.514-10.408,3.084-8.074C659.047,757.716,650.346,763.455,650.346,763.455z M652.707,766.244
			c2.342,1.611,12.738,2.77,10.645-1.141C661.236,761.173,652.707,766.244,652.707,766.244z M650.707,768.378
			c0,0-0.514,8.834,4.512,7.982C660.266,775.511,650.707,768.378,650.707,768.378z M646.766,767.292c0,0-11.938,2.391-6.813,6.373
			C645.07,777.646,646.766,767.292,646.766,767.292z M645.223,765.39c0,0-10.625-6.172-12.09-1.92
			C631.666,767.726,645.223,765.39,645.223,765.39z"></path>
      <path fill="#FFE900" d="M648.898,761.753c2.305,0.361,4.188,2.244,4.188,4.217c0,1.975-1.885,3.262-4.188,2.896
			c-2.322-0.379-4.189-2.268-4.189-4.217C644.709,762.675,646.576,761.392,648.898,761.753z"></path>
      <path fill="#FF3C00" d="M648.898,763.888c0.914,0.143,1.676,0.904,1.676,1.684c0,0.781-0.762,1.305-1.676,1.141
			c-0.938-0.145-1.681-0.889-1.681-1.666C647.221,764.269,647.965,763.763,648.898,763.888z"></path>
      <path
        fill="#FFFFFF"
        d="M607.066,757.136c0,0-2.099-7.004-5.431-6.553C598.326,751.072,598.766,753.697,607.066,757.136z
			 M610.742,757.716c0,0-2.152-8.871,2.627-6.877C618.148,752.832,610.742,757.716,610.742,757.716z M612.74,760.087
			c2.018,1.377,10.871,2.371,9.063-0.959C620.014,755.779,612.74,760.087,612.74,760.087z M611.047,761.933
			c0,0-0.438,7.514,3.846,6.789C619.177,768,611.047,761.933,611.047,761.933z M607.695,760.992c0,0-10.188,2.027-5.812,5.432
			C606.229,769.808,607.695,760.992,607.695,760.992z M606.361,759.382c0,0-9.063-5.268-10.306-1.646
			C594.824,761.355,606.361,759.382,606.361,759.382z"></path>
      <path fill="#FFE900" d="M609.504,756.267c1.961,0.309,3.563,1.922,3.563,3.604c0,1.666-1.604,2.771-3.563,2.465
			c-1.979-0.309-3.58-1.922-3.58-3.604C605.924,757.064,607.523,755.96,609.504,756.267z"></path>
      <path fill="#FF3C00" d="M609.504,758.095c0.781,0.129,1.408,0.762,1.408,1.432s-0.629,1.104-1.408,0.975
			c-0.799-0.127-1.428-0.76-1.428-1.43S608.705,757.968,609.504,758.095z"></path>
      <path
        fill="#FFFFFF"
        d="M685.818,795.314c0,0,6.227-6.137,9.139-3.639C697.871,794.175,695.871,796.691,685.818,795.314z
			 M681.953,793.74c0,0,7.387-8.092,1.6-8.852S681.953,793.74,681.953,793.74z M678.602,795.044
			c-2.774,0.234-11.881-4.037-8.146-6.479C674.203,786.119,678.602,795.044,678.602,795.044z M679.135,798.013
			c0,0-4.094,8.199-7.787,4.854C667.652,799.515,679.135,798.013,679.135,798.013z M682.904,799.025c0,0,8.563,8.254,2.342,9.232
			C679.002,809.236,682.904,799.025,682.904,799.025z M685.15,798.103c0,0,11.856-0.107,10.891,4.471
			C695.071,807.152,685.15,798.103,685.15,798.103z"></path>
      <path fill="#FFE900" d="M684.008,792.962c-2.094-0.869-4.588-0.127-5.598,1.646c-0.99,1.77-0.133,3.893,1.961,4.738
			c2.076,0.854,4.588,0.109,5.578-1.645C686.961,795.929,686.084,793.812,684.008,792.962z"></path>
      <path fill="#FF3C00" d="M682.904,794.88c-0.818-0.344-1.828-0.037-2.209,0.654c-0.4,0.703-0.062,1.555,0.762,1.896
			c0.838,0.324,1.828,0.037,2.229-0.672C684.084,796.074,683.742,795.224,682.904,794.88z"></path>
    </g>
  </g>
</svg>