<svg 
    version="1.1"
    id="Layer_1"
    xmlns="http://www.w3.org/2000/svg"
    xmlns:xlink="http://www.w3.org/1999/xlink"
    width="100%"
    height="100%"
    viewBox="0 0 1332.014 947.007"
    enable-background="new 0 0 1332.014 947.007"
    xml:space="preserve"
    style="width:100%;height:100%;display:block"
>
    <g id="clouds" class="s-clouds-move-right">
    <g id="_x33_">
      <path
        fill="#FFFFFF"
        d="M526.75,188.776c5.404,0,10.513,1.022,15.045,2.85c4.903-3.835,11.591-6.19,18.986-6.19
			c12.812,0,23.557,7.084,26.419,16.615c6.408,1.539,11.542,5.397,13.878,10.357c0.771-0.069,1.555-0.104,2.349-0.104
			c11.835,0,21.427,7.67,21.427,17.132s-9.591,17.131-21.427,17.131c-3.698,0-7.164-0.746-10.188-2.055
			c-2.597,7.119-10.823,12.32-20.566,12.32c-5.956,0-11.348-1.94-15.238-5.088c-3.877,3.147-9.27,5.088-15.226,5.088
			c-5.648,0-10.808-1.758-14.634-4.616c-3.916,3.423-9.552,5.568-15.815,5.568c-5.867,0-11.168-1.883-15.03-4.926
			c-1.784,0.31-3.619,0.472-5.51,0.472c-14.096,0-25.521-9.141-25.521-20.404c0-11.263,11.425-20.403,25.521-20.403
			c0.771,0,1.527,0.023,2.285,0.08C495.313,199.202,509.51,188.776,526.75,188.776z"></path>
      <path
        fill="#DFDFDF"
        d="M624.831,230.366c-0.616,9.025-9.962,16.202-21.4,16.202c-3.694,0-7.163-0.746-10.189-2.055
			c-2.595,7.119-10.822,12.32-20.565,12.32c-5.957,0-11.349-1.94-15.239-5.088c-3.877,3.147-9.27,5.088-15.226,5.088
			c-5.648,0-10.811-1.758-14.634-4.616c-3.916,3.422-9.552,5.568-15.816,5.568c-5.867,0-11.168-1.883-15.034-4.926
			c-1.781,0.31-3.617,0.472-5.507,0.472c-14.096,0-25.521-9.141-25.521-20.404c0-1.216,0.127-2.411,0.384-3.571
			c-0.038,0.436-0.064,0.885-0.064,1.332c0,11.276,11.438,20.404,25.534,20.404c1.891,0,3.736-0.16,5.493-0.472
			c3.876,3.054,9.179,4.926,15.045,4.926c6.265,0,11.9-2.147,15.815-5.568c3.838,2.858,8.973,4.614,14.634,4.614
			c5.957,0,11.349-1.94,15.239-5.075c3.877,3.134,9.27,5.075,15.226,5.075c9.743,0,17.972-5.188,20.566-12.309
			c3.026,1.309,6.508,2.043,10.188,2.043C614.24,244.329,622.97,238.311,624.831,230.366z M545.507,222.248
			c-26.895-2.228-28.771,19.922-7.908,23.963c18.794,3.639,26.023-12.481,10.284-17.384c-13.938-4.341-21.593,7.302-10.797,11.345
			c7.563,2.836,13.209-2.343,8.677-5.156c-2.387-1.492-4.249,0.172-5.479-1.492c4.479-4.398,15.599,3.525,7.42,8.003
			c-9.924,5.432-25.944-6.178-14.236-13.135c11.336-6.74,32.208,4.42,23.146,14.709c-9.397,10.667-37.387,2.871-35.219-10.874
			c2.528-15.995,38.938-15.387,46.977,2.411c0.846,1.895,1.925,6.511-0.127,7.9c-0.646-0.114-0.757-3.778-0.95-4.65
			C565.584,230.067,557.472,223.935,545.507,222.248z M515.095,195.712c17.677-5.777,29.295,11.058,16.663,17.338
			c-11.387,5.648-23.93-5.719-15.25-11.884c7.677-5.466,18.421,2.377,12.798,7.13c-3.938,3.33-10.296,0.184-8.444-2.674
			c0.976-1.505,3.026-0.505,3.116-1.976c-5.174-2.732-9.218,5.087-1.438,7.303c9.435,2.698,15.187-8.693,3.8-12.299
			c-11.041-3.501-20.374,8.279-9.27,14.859c11.504,6.821,27.354-3.434,19.445-13.732c-9.218-11.977-34.263-5.995-31.563,8.968
			c0.282,1.583,1.682,5.328,3.761,6.085c0.384-0.185-1.232-3.032-1.503-3.731C504.76,204.794,507.545,198.834,515.095,195.712z
			 M473.77,221.708c-14.802,15.018,6.534,32.002,20.36,22c12.438-9.002-0.373-24.986-12.645-18.762
			c-10.873,5.501-2.772,18.544,6.342,14.767c6.367-2.64,3.812-9.829-1.117-9.048c-2.62,0.425-1.822,2.745-4.058,2.332
			c-2.336-5.914,10.818-7.119,11.486,1.137c0.813,10-18.315,11.608-19.834-0.597c-1.463-11.815,19.486-16.742,25.585-3.789
			c6.308,13.423-14.596,25.147-27.383,13.974c-14.866-12.987,2.773-35.021,24.379-27.271c2.302,0.814,7.436,3.446,7.87,5.718
			c-0.424,0.311-4.146-2.239-5.105-2.745C491.011,214.899,481.063,215.518,473.77,221.708z M574.173,192.071
			c-18.243-5.961-30.219,11.4-17.188,17.878c11.747,5.833,24.674-5.902,15.735-12.264c-7.934-5.626-19.013,2.457-13.209,7.373
			c4.069,3.433,10.616,0.184,8.719-2.767c-1.017-1.551-3.135-0.529-3.225-2.034c5.327-2.812,9.5,5.236,1.479,7.532
			c-9.722,2.778-15.65-8.968-3.904-12.688c11.374-3.605,21.003,8.531,9.552,15.317c-11.876,7.04-28.218-3.537-20.052-14.145
			c9.5-12.355,35.329-6.19,32.544,9.243c-0.282,1.63-1.732,5.49-3.877,6.282c-0.396-0.207,1.271-3.146,1.554-3.859
			C584.828,201.441,581.953,195.286,574.173,192.071z M614.586,220.008c12.503,11.712-5.545,24.951-17.215,17.154
			c-10.526-7.027,0.308-19.485,10.681-14.639c9.205,4.294,2.353,14.467-5.353,11.516c-5.396-2.055-3.227-7.657,0.938-7.05
			c2.208,0.321,1.541,2.136,3.428,1.814c1.979-4.604-9.149-5.557-9.719,0.885c-0.681,7.796,15.508,9.06,16.78-0.46
			c1.232-9.221-16.471-13.055-21.632-2.963c-5.329,10.474,12.348,19.613,23.146,10.909c12.582-10.139-2.335-27.316-20.616-21.277
			c-1.927,0.644-6.275,2.699-6.647,4.466c0.356,0.23,3.518-1.746,4.326-2.135C600.002,214.691,608.411,215.185,614.586,220.008z"></path>
    </g>
    <g id="_x32_">
      <path
        fill="#FFFFFF"
        d="M91.632,273.992c-3.965,0-7.709,0.749-11.033,2.092c-3.583-2.809-8.497-4.537-13.914-4.537
			c-9.396,0-17.252,5.188-19.357,12.183c-4.691,1.123-8.459,3.954-10.171,7.578c-0.565-0.046-1.132-0.066-1.724-0.066
			c-8.669,0-15.7,5.617-15.7,12.555c0,6.929,7.03,12.559,15.7,12.559c2.709,0,5.246-0.554,7.475-1.512
			c1.909,5.208,7.93,9.032,15.071,9.032c4.359,0,8.311-1.431,11.156-3.733c2.845,2.304,6.796,3.733,11.156,3.733
			c4.162,0,7.93-1.289,10.738-3.392c2.868,2.512,7.006,4.085,11.586,4.085c4.297,0,8.188-1.377,11.021-3.614
			c1.305,0.23,2.647,0.354,4.039,0.354c10.331,0,18.704-6.694,18.704-14.957c0-8.262-8.371-14.955-18.703-14.955
			c-0.565,0-1.132,0.021-1.674,0.065C114.672,281.635,104.266,273.992,91.632,273.992z"></path>
      <path
        fill="#FFFFFF"
        d="M952.869,132.974c-5.352,0-10.403,1.011-14.896,2.824c-4.836-3.79-11.468-6.124-18.775-6.124
			c-12.685,0-23.284,7.003-26.127,16.441c-6.331,1.516-11.417,5.337-13.729,10.227c-0.764-0.06-1.525-0.088-2.326-0.088
			c-11.696,0-21.188,7.581-21.188,16.946c0,9.351,9.49,16.945,21.188,16.945c3.657,0,7.08-0.742,10.088-2.038
			c2.575,7.032,10.702,12.189,20.345,12.189c5.883,0,11.218-1.933,15.058-5.039c3.838,3.105,9.173,5.039,15.057,5.039
			c5.616,0,10.702-1.741,14.492-4.579c3.872,3.389,9.456,5.516,15.641,5.516c5.802,0,11.053-1.86,14.875-4.877
			c1.762,0.313,3.57,0.476,5.449,0.476c13.943,0,25.243-9.038,25.243-20.186c0-11.15-11.296-20.184-25.241-20.184
			c-0.765,0-1.526,0.029-2.262,0.088C983.965,143.29,969.921,132.974,952.869,132.974z"></path>
      <path
        fill="#DFDFDF"
        d="M19.758,304.477c0.444,6.608,7.29,11.873,15.675,11.873c2.709,0,5.246-0.552,7.474-1.51
			c1.909,5.208,7.93,9.032,15.072,9.032c4.359,0,8.311-1.431,11.156-3.733c2.845,2.303,6.797,3.733,11.156,3.733
			c4.162,0,7.93-1.289,10.738-3.392c2.868,2.512,7.007,4.085,11.586,4.085c4.297,0,8.188-1.379,11.021-3.614
			c1.305,0.229,2.647,0.353,4.039,0.353c10.331,0,18.704-6.693,18.704-14.956c0-0.894-0.099-1.764-0.282-2.619
			c0.025,0.33,0.036,0.648,0.036,0.979c0,8.261-8.374,14.958-18.704,14.958c-1.392,0-2.733-0.121-4.04-0.342
			c-2.833,2.226-6.724,3.603-11.021,3.603c-4.581,0-8.718-1.575-11.586-4.075c-2.809,2.095-6.577,3.384-10.726,3.384
			c-4.372,0-8.324-1.423-11.168-3.726c-2.845,2.302-6.786,3.726-11.156,3.726c-7.141,0-13.176-3.813-15.071-9.031
			c-2.229,0.958-4.766,1.51-7.462,1.51C27.504,314.709,21.112,310.305,19.758,304.477z M77.892,298.52
			c19.702-1.63,21.081,14.604,5.787,17.566c-13.767,2.666-19.062-9.151-7.536-12.743c10.219-3.182,15.836,5.354,7.906,8.316
			c-5.528,2.081-9.678-1.72-6.354-3.779c1.749-1.089,3.104,0.122,4.014-1.089c-3.274-3.227-11.438,2.588-5.43,5.858
			c7.266,3.975,19.012-4.519,10.43-9.626c-8.3-4.935-23.604,3.237-16.968,10.783c6.896,7.81,27.411,2.104,25.81-7.976
			c-1.847-11.719-28.532-11.268-34.417,1.772c-0.627,1.389-1.417,4.771,0.085,5.792c0.468-0.088,0.566-2.773,0.703-3.412
			C63.163,304.258,69.111,299.765,77.892,298.52z M100.179,279.079c-12.955-4.239-21.476,8.096-12.216,12.698
			c8.336,4.14,17.535-4.198,11.181-8.7c-5.627-4.01-13.507,1.729-9.382,5.22c2.894,2.445,7.548,0.132,6.195-1.96
			c-0.713-1.102-2.229-0.374-2.29-1.442c3.78-2.004,6.746,3.723,1.047,5.353c-6.908,1.972-11.119-6.376-2.77-9.021
			c8.078-2.565,14.912,6.068,6.784,10.892c-8.435,5.001-20.059-2.512-14.247-10.066c6.747-8.777,25.108-4.396,23.125,6.575
			c-0.209,1.167-1.231,3.899-2.759,4.46c-0.283-0.132,0.911-2.225,1.108-2.742C107.751,285.732,105.708,281.361,100.179,279.079z
			 M130.458,298.134c10.849,11.002-4.79,23.449-14.912,16.124c-9.125-6.596,0.271-18.314,9.259-13.767
			c7.967,4.042,2.033,13.603-4.655,10.837c-4.667-1.938-2.795-7.212,0.825-6.629c1.909,0.309,1.33,2.004,2.967,1.694
			c1.711-4.328-7.93-5.208-8.422,0.838c-0.591,7.323,13.435,8.514,14.542-0.433c1.071-8.654-14.283-12.268-18.741-2.783
			c-4.629,9.833,10.689,18.426,20.06,10.24c10.898-9.515-2.032-25.659-17.867-19.989c-1.675,0.604-5.455,2.533-5.775,4.184
			c0.32,0.232,3.054-1.629,3.755-1.993C117.823,293.133,125.113,293.596,130.458,298.134z M56.872,276.413
			c13.36-4.371,22.152,8.351,12.597,13.096c-8.596,4.273-18.076-4.316-11.539-8.976c5.824-4.142,13.939,1.795,9.69,5.386
			c-2.979,2.523-7.782,0.132-6.391-2.017c0.739-1.146,2.29-0.396,2.364-1.498c-3.903-2.06-6.97,3.843-1.084,5.518
			c7.118,2.038,11.476-6.563,2.869-9.296c-8.337-2.643-15.405,6.256-7.006,11.234c8.694,5.154,20.674-2.588,14.702-10.376
			c-6.97-9.053-25.895-4.537-23.864,6.773c0.221,1.201,1.28,4.021,2.844,4.604c0.295-0.144-0.935-2.301-1.132-2.831
			C49.065,283.277,51.17,278.771,56.872,276.413z M27.27,296.878c-9.173,8.578,4.051,18.281,12.609,12.577
			c7.709-5.145-0.233-14.283-7.831-10.726c-6.747,3.149-1.724,10.595,3.928,8.436c3.941-1.51,2.365-5.616-0.689-5.165
			c-1.625,0.232-1.133,1.563-2.523,1.321c-1.441-3.369,6.724-4.063,7.128,0.648c0.492,5.719-11.353,6.644-12.289-0.328
			c-0.91-6.751,12.068-9.571,15.849-2.17c3.904,7.665-9.05,14.361-16.968,7.984c-9.21-7.424,1.712-20.01,15.11-15.583
			c1.416,0.474,4.605,1.971,4.876,3.271c-0.259,0.177-2.573-1.277-3.164-1.563C37.945,292.979,31.788,293.342,27.27,296.878z"></path>
      <path
        fill="#DFDFDF"
        d="M855.862,174.12c0.6,8.919,9.839,16.025,21.153,16.025c3.656,0,7.08-0.744,10.09-2.038
			c2.573,7.031,10.7,12.188,20.343,12.188c5.884,0,11.218-1.933,15.058-5.039c3.838,3.107,9.173,5.039,15.059,5.039
			c5.614,0,10.701-1.74,14.489-4.579c3.872,3.39,9.457,5.515,15.641,5.515c5.802,0,11.054-1.859,14.875-4.876
			c1.763,0.313,3.571,0.475,5.45,0.475c13.943,0,25.243-9.038,25.243-20.187c0-1.205-0.132-2.378-0.382-3.538
			c0.034,0.445,0.049,0.877,0.049,1.324c0,11.149-11.299,20.186-25.242,20.186c-1.879,0-3.688-0.163-5.45-0.46
			c-3.822,3.002-9.073,4.861-14.875,4.861c-6.184,0-11.769-2.126-15.641-5.5c-3.788,2.824-8.875,4.563-14.476,4.563
			c-5.9,0-11.234-1.917-15.073-5.024c-3.839,3.107-9.157,5.024-15.057,5.024c-9.643,0-17.782-5.144-20.344-12.189
			c-3.009,1.293-6.435,2.038-10.07,2.038C866.316,187.931,857.69,181.984,855.862,174.12z M934.324,166.079
			c26.591-2.2,28.452,19.71,7.811,23.708c-18.58,3.596-25.728-12.353-10.171-17.198c13.794-4.295,21.373,7.225,10.67,11.223
			c-7.462,2.81-13.062-2.319-8.574-5.098c2.359-1.472,4.189,0.163,5.417-1.472c-4.419-4.355-15.438,3.494-7.323,7.909
			c9.806,5.366,25.655-6.096,14.072-12.992c-11.202-6.659-31.855,4.372-22.898,14.554c9.307,10.539,36.996,2.84,34.834-10.762
			c-2.491-15.817-38.508-15.208-46.452,2.394c-0.852,1.872-1.911,6.438,0.116,7.82c0.631-0.119,0.765-3.747,0.944-4.608
			C914.446,173.823,922.474,167.759,934.324,166.079z M964.404,139.843c-17.484-5.723-28.984,10.925-16.487,17.139
			c11.252,5.587,23.665-5.664,15.09-11.742c-7.594-5.413-18.229,2.334-12.662,7.046c3.906,3.3,10.188,0.179,8.359-2.646
			c-0.964-1.486-3.007-0.505-3.09-1.948c5.102-2.706,9.104,5.025,1.413,7.224c-9.325,2.661-15.008-8.604-3.739-12.175
			c10.901-3.463,20.128,8.192,9.156,14.701c-11.384,6.75-27.074-3.39-19.229-13.585c9.107-11.848,33.889-5.932,31.211,8.874
			c-0.281,1.575-1.661,5.263-3.723,6.02c-0.383-0.179,1.229-3.002,1.494-3.701C974.625,148.819,971.866,142.919,964.404,139.843z
			 M1005.271,165.558c14.642,14.85-6.469,31.648-20.127,21.762c-12.314-8.903,0.36-24.72,12.493-18.581
			c10.751,5.455,2.743,18.359-6.278,14.627c-6.302-2.617-3.772-9.736,1.109-8.949c2.576,0.417,1.795,2.705,4.005,2.288
			c2.313-5.841-10.698-7.031-11.364,1.129c-0.797,9.886,18.133,11.491,19.628-0.579c1.441-11.684-19.277-16.56-25.296-3.76
			c-6.248,13.275,14.427,24.869,27.071,13.824c14.709-12.842-2.739-34.634-24.11-26.979c-2.263,0.817-7.363,3.419-7.795,5.647
			c0.432,0.312,4.121-2.2,5.065-2.692C988.219,158.81,998.059,159.433,1005.271,165.558z M905.954,136.244
			c18.032-5.901,29.896,11.267,17.002,17.674c-11.601,5.767-24.397-5.826-15.573-12.115c7.86-5.59,18.813,2.423,13.079,7.271
			c-4.021,3.403-10.503,0.179-8.627-2.72c0.998-1.546,3.091-0.535,3.191-2.022c-5.271-2.78-9.406,5.188-1.462,7.447
			c9.604,2.75,15.485-8.859,3.867-12.547c-11.252-3.567-20.791,8.442-9.457,15.164c11.734,6.957,27.904-3.493,19.848-14.002
			c-9.406-12.218-34.949-6.124-32.208,9.141c0.299,1.621,1.729,5.426,3.839,6.213c0.396-0.193-1.264-3.106-1.529-3.819
			C895.417,145.505,898.26,139.426,905.954,136.244z M866.001,163.863c-12.382,11.58,5.468,24.676,17.021,16.975
			c10.403-6.943-0.313-19.28-10.567-14.478c-9.107,4.25-2.327,14.299,5.302,11.385c5.319-2.037,3.191-7.582-0.93-6.972
			c-2.194,0.311-1.529,2.11-3.406,1.783c-1.945-4.548,9.074-5.485,9.622,0.875c0.664,7.716-15.323,8.963-16.587-0.445
			c-1.229-9.112,16.288-12.918,21.391-2.927c5.271,10.345-12.215,19.383-22.897,10.777c-12.437-10.02,2.309-27.01,20.392-21.033
			c1.91,0.638,6.215,2.66,6.581,4.414c-0.35,0.238-3.474-1.725-4.271-2.111C880.41,158.6,872.099,159.092,866.001,163.863z"></path>
    </g>
    <g id="_x31_">
      <path
        fill="#FFFFFF"
        d="M1062.79,329.817c8.272,0,16.062,1.563,22.967,4.349c7.479-5.85,17.7-9.448,28.994-9.448
			c19.54,0,35.925,10.804,40.313,25.363c9.764,2.337,17.604,8.236,21.179,15.793c1.165-0.097,2.354-0.158,3.563-0.158
			c18.065,0,32.721,11.712,32.721,26.149c0,14.437-14.651,26.138-32.721,26.138c-5.618,0-10.913-1.137-15.528-3.124
			c-3.982,10.854-16.521,18.787-31.404,18.787c-9.085,0-17.309-2.957-23.238-7.74c-5.93,4.783-14.146,7.74-23.234,7.74
			c-8.642,0-16.492-2.678-22.347-7.039c-5.981,5.223-14.567,8.504-24.131,8.504c-8.951,0-17.062-2.871-22.953-7.521
			c-2.709,0.473-5.512,0.727-8.396,0.727c-21.521,0-38.959-13.941-38.959-31.139c0-17.199,17.438-31.142,38.959-31.142
			c1.178,0,2.344,0.05,3.494,0.119C1014.825,345.732,1036.479,329.817,1062.79,329.817z"></path>
      <path
        fill="#DFDFDF"
        d="M1212.467,393.284c-0.921,13.784-15.189,24.721-32.663,24.721c-5.618,0-10.913-1.137-15.528-3.124
			c-3.98,10.854-16.521,18.785-31.403,18.785c-9.085,0-17.307-2.955-23.237-7.738c-5.932,4.783-14.146,7.738-23.234,7.738
			c-8.644,0-16.494-2.676-22.348-7.037c-5.981,5.221-14.566,8.504-24.131,8.504c-8.95,0-17.063-2.871-22.953-7.521
			c-2.709,0.473-5.512,0.727-8.396,0.727c-21.521,0-38.96-13.939-38.96-31.14c0-1.866,0.201-3.685,0.596-5.451
			c-0.054,0.666-0.079,1.344-0.079,2.035c0,17.2,17.44,31.14,38.959,31.14c2.87,0,5.688-0.254,8.381-0.727
			c5.904,4.662,14.021,7.52,22.972,7.52c9.547,0,18.146-3.27,24.131-8.502c5.851,4.373,13.706,7.051,22.344,7.051
			c9.085,0,17.307-2.967,23.238-7.751c5.932,4.785,14.146,7.751,23.234,7.751c14.868,0,27.423-7.933,31.402-18.798
			c4.617,2,9.896,3.14,15.532,3.14C1196.313,414.604,1209.637,405.421,1212.467,393.284z M1091.418,380.895
			c-41.03-3.394-43.902,30.399-12.064,36.564c28.684,5.57,39.721-19.041,15.707-26.525c-21.285-6.625-32.975,11.145-16.479,17.32
			c11.521,4.324,20.149-3.584,13.242-7.873c-3.655-2.266-6.486,0.254-8.369-2.266c6.824-6.723,23.806,5.377,11.321,12.198
			c-15.145,8.282-39.601-9.426-21.736-20.034c17.307-10.283,49.156,6.732,35.331,22.433c-14.342,16.278-57.053,4.385-53.735-16.604
			c3.86-24.396,59.408-23.449,71.681,3.706c1.286,2.87,2.949,9.933-0.188,12.051c-0.976-0.182-1.164-5.778-1.448-7.1
			C1122.077,392.836,1109.699,383.476,1091.418,380.895z M1045.01,340.402c26.979-8.816,44.715,16.859,25.436,26.454
			c-17.374,8.624-36.521-8.733-23.292-18.146c11.737-8.333,28.141,3.635,19.541,10.902c-6.017,5.076-15.695,0.267-12.881-4.082
			c1.479-2.3,4.615-0.787,4.757-3.017c-7.885-4.167-14.071,7.752-2.187,11.146c14.384,4.104,23.171-13.276,5.784-18.772
			c-16.833-5.341-31.078,12.635-14.15,22.678c17.578,10.416,41.767-5.233,29.688-20.955c-14.043-18.276-52.286-9.156-48.169,13.698
			c0.434,2.411,2.573,8.115,5.741,9.276c0.597-0.278-1.887-4.639-2.305-5.705C1029.235,354.26,1033.501,345.163,1045.01,340.402z
			 M981.946,380.07c-22.589,22.915,9.979,48.837,31.063,33.588c18.985-13.736-0.556-38.144-19.283-28.658
			c-16.603,8.418-4.233,28.319,9.671,22.553c9.727-4.03,5.822-15.008-1.705-13.807c-3.992,0.644-2.774,4.192-6.188,3.548
			c-3.547-9.021,16.521-10.866,17.538,1.732c1.229,15.261-27.965,17.72-30.266-0.896c-2.236-18.037,29.733-25.545,39.023-5.791
			c9.627,20.481-22.264,38.371-41.773,21.328c-22.687-19.828,4.227-53.45,37.213-41.629c3.491,1.259,11.336,5.28,12.012,8.734
			c-0.637,0.473-6.353-3.416-7.813-4.181C1008.244,369.665,993.078,370.635,981.946,380.07z M1135.172,334.856
			c-27.829-9.109-46.123,17.393-26.229,27.265c17.916,8.899,37.646-9,24.009-18.702c-12.094-8.6-29.007,3.743-20.149,11.241
			c6.216,5.245,16.195,0.276,13.297-4.215c-1.527-2.375-4.775-0.813-4.916-3.114c8.125-4.287,14.506,8.006,2.266,11.493
			c-14.846,4.252-23.899-13.674-5.975-19.354c17.36-5.511,32.057,13.021,14.584,23.392c-18.119,10.729-43.063-5.402-30.604-21.609
			c14.488-18.847,53.91-9.449,49.686,14.111c-0.46,2.495-2.652,8.382-5.933,9.582c-0.61-0.307,1.938-4.785,2.37-5.889
			C1151.436,349.136,1147.047,339.762,1135.172,334.856z M1196.84,377.466c19.095,17.877-8.45,38.08-26.271,26.188
			c-16.048-10.722,0.474-29.725,16.304-22.335c14.042,6.553,3.588,22.081-8.165,17.574c-8.233-3.139-4.931-11.7,1.436-10.758
			c3.37,0.498,2.348,3.262,5.229,2.765c3.007-7.038-13.979-8.468-14.828,1.344c-1.045,11.907,23.642,13.82,25.593-0.689
			c1.882-14.074-25.146-19.926-33.001-4.518c-8.139,15.975,18.835,29.916,35.316,16.63c19.188-15.454-3.563-41.678-31.457-32.449
			c-2.952,0.972-9.587,4.106-10.146,6.795c0.526,0.375,5.353-2.65,6.599-3.259C1174.591,369.363,1187.414,370.114,1196.84,377.466z"></path>
    </g>
    </g>
  
</svg>