<svg
    version="1.1"
    id="Layer_1"
    xmlns="http://www.w3.org/2000/svg"
    xmlns:xlink="http://www.w3.org/1999/xlink"
    width="100%"
    height="100%"
    viewBox="0 0 1332.014 947.007"
    enable-background="new 0 0 1332.014 947.007"
    xml:space="preserve"
    style="width:100%;height:100%;display:block"
>
    <g id="cow_2" class="s-cow-move-right">
      <path class="s-cow-move-tale" fill="#3F3B37" d="M65.528,788.958c0,1.846-1.839,3.342-4.109,3.342l0,0c-2.268,0-4.109-1.496-4.109-3.342v-33.445
			c0-1.846,1.839-3.345,4.109-3.345h4.109V788.958z"></path>
      <g id="legs_2_">
        <g id="lower_right_2_" class="s-cow-move-leg-lower">
          <path
            fill="#594B42"
            d="M83.989,772.236v23.409c0,1.229,0.815,2.304,2.028,2.887c1.275,0.606,2.081,1.701,2.081,2.904v10.929
					c0,1.852,1.839,3.347,4.108,3.347v6.689h12.323l-2.972-4.838c-0.696-1.137-2.118-1.852-3.674-1.852h-1.57v-14.274
					c0-1.204,0.807-2.293,2.081-2.904c1.213-0.582,2.029-1.655,2.029-2.886v-23.411H83.99l0,0H83.989z"></path>
          <path fill="#302C28" d="M97.907,815.71c1.556,0,2.978,0.716,3.674,1.853l2.972,4.836H92.23v-6.688H97.907L97.907,815.71z"></path>
        </g>
        <g id="lower_left_2_" class="s-cow-move-leg-lower">
          <path
            fill="#594B42"
            d="M188.769,795.647c0,1.229-0.814,2.304-2.028,2.885c-1.274,0.609-2.081,1.701-2.081,2.904v14.274h1.569
					c1.557,0,2.979,0.716,3.675,1.849l2.972,4.841h-12.325v-6.689c-2.267,0-4.107-1.495-4.107-3.346v-10.931
					c0-1.201-0.807-2.292-2.08-2.902c-1.213-0.585-2.029-1.657-2.029-2.887v-23.409h16.434L188.769,795.647L188.769,795.647z"></path>
          <path fill="#302C28" d="M186.229,815.71h-5.677v6.688h12.324l-2.972-4.836C189.208,816.425,187.787,815.71,186.229,815.71z"></path>
        </g>
        <g id="uppper_right_2_" class="s-cow-move-leg-upper">
          <path
            fill="#8C8279"
            d="M61.418,774.315v21.264c0,1.218,0.817,2.283,2.029,2.857c1.273,0.608,2.078,1.689,2.078,2.884v10.836
					c0,1.834,1.843,3.318,4.111,3.318v6.637h12.323l-2.972-4.798c-0.696-1.128-2.118-1.836-3.675-1.836h-1.569v-14.156
					c0-1.191,0.805-2.276,2.081-2.881c1.213-0.576,3.094-2.746,3.094-3.966c0,0,0.595-2.175,1.316-5.323
					c0.869-3.788,1.725-14.836,1.725-14.836c0-8.368-5.013-12.265-11.498-11.72C67.832,762.816,61.422,759.887,61.418,774.315z"></path>
          <path fill="#423B34" d="M69.635,815.71v6.688h12.324l-2.97-4.836c-0.697-1.137-2.119-1.853-3.675-1.853H69.635L69.635,815.71z"></path>
        </g>
        <g id="upper_left_2_" class="s-cow-move-leg-upper">
          <path
            fill="#8C8279"
            d="M160.102,784.362l-0.092,10.917c-0.01,1.228,0.799,2.309,2.006,2.903
					c1.269,0.622,2.067,1.721,2.057,2.924l-0.091,10.932c-0.015,1.849,1.812,3.361,4.081,3.383l-0.056,6.69l12.323,0.12
					l-2.932-4.869c-0.685-1.14-2.102-1.873-3.659-1.889l-1.57-0.014l0.119-14.271c0.01-1.205,0.824-2.289,2.104-2.89
					c1.218-0.564,2.042-1.633,2.052-2.862l0.139-16.721h0.002c0-0.007,0.003-0.015,0.003-0.022c0.03-0.302,0.048-0.611,0.05-0.925
					c0.042-4.98-3.617-9.057-8.167-9.099c-4.313-0.042-7.883,3.549-8.284,8.162c-0.005,0.076-0.011,0.15-0.017,0.226l-0.062,7.303
					h-0.007V784.362L160.102,784.362z"></path>
          <path fill="#423B34" d="M177.581,817.559l2.972,4.84h-12.324v-6.691h5.676C175.462,815.71,176.885,816.425,177.581,817.559z"></path>
        </g>
      </g>
      <path
        fill="#E2DEDC"
        d="M61.421,752.168v26.759h123.239c0.104,0,0.211,0,0.316-0.004c0.083,0,0.164-0.002,0.247-0.005
			c0.043,0,0.087-0.003,0.126-0.003c0.193-0.005,0.386-0.011,0.579-0.018c0.11-0.004,0.22-0.009,0.331-0.014
			c0.04-0.003,0.08-0.006,0.12-0.008c0.06-0.003,0.118-0.006,0.177-0.011c0.207-0.01,0.41-0.026,0.615-0.045
			c0.014-0.002,0.023-0.002,0.032-0.002c0.038-0.003,0.075-0.005,0.113-0.011c0.027,0,0.051-0.003,0.075-0.009
			c0.136-0.011,0.273-0.021,0.407-0.036c0.097-0.009,0.191-0.017,0.284-0.028c0.081-0.011,0.161-0.021,0.242-0.03
			c0.147-0.015,0.294-0.036,0.442-0.057c0.035-0.007,0.07-0.011,0.107-0.016c0.035-0.007,0.069-0.011,0.104-0.016
			s0.067-0.012,0.097-0.014c0.163-0.024,0.327-0.05,0.491-0.076c0.03-0.005,0.059-0.011,0.089-0.016
			c0.391-0.063,0.78-0.137,1.164-0.219c0.394-0.081,0.786-0.17,1.168-0.269c0.58-0.148,1.152-0.311,1.71-0.493
			c0.123-0.039,0.244-0.078,0.364-0.12c0.25-0.08,0.496-0.167,0.743-0.26c0.167-0.061,0.335-0.127,0.503-0.189
			c0.021-0.011,0.042-0.019,0.063-0.025c0.172-0.069,0.341-0.138,0.51-0.208c0.164-0.066,0.325-0.137,0.483-0.208
			c0.54-0.236,1.067-0.488,1.582-0.756c0.221-0.116,0.438-0.234,0.653-0.354c0.021-0.011,0.045-0.024,0.066-0.036
			c0.191-0.109,0.379-0.217,0.566-0.33c0.03-0.018,0.059-0.036,0.089-0.053c0.187-0.112,0.372-0.229,0.557-0.345
			c0.072-0.049,0.142-0.094,0.215-0.14c0.142-0.092,0.282-0.187,0.421-0.281c0.027-0.021,0.056-0.04,0.086-0.061
			c0.195-0.135,0.389-0.271,0.579-0.412c0.19-0.14,0.38-0.283,0.566-0.429c0.032-0.025,0.063-0.05,0.094-0.075
			c0.145-0.117,0.293-0.233,0.436-0.354c0.042-0.033,0.083-0.07,0.125-0.104c0.171-0.144,0.341-0.289,0.507-0.438
			c0.48-0.433,0.939-0.88,1.374-1.345c0.088-0.096,0.174-0.188,0.26-0.283c0.121-0.134,0.241-0.271,0.357-0.407
			c0.166-0.195,0.33-0.392,0.488-0.591c0.523-0.659,1.001-1.348,1.427-2.059c0.072-0.119,0.143-0.237,0.209-0.357
			c0.07-0.118,0.137-0.24,0.202-0.358c0.168-0.314,0.33-0.632,0.482-0.954c0.029-0.068,0.062-0.139,0.097-0.206
			c0.008-0.01,0.01-0.021,0.014-0.034c0.067-0.153,0.134-0.308,0.198-0.462c0.111-0.262,0.212-0.527,0.306-0.793
			c0.041-0.105,0.076-0.211,0.11-0.315c0.016-0.048,0.032-0.092,0.048-0.14c0.038-0.118,0.075-0.236,0.11-0.356
			c0.042-0.14,0.085-0.28,0.123-0.422c0.054-0.196,0.105-0.39,0.15-0.586c0.057-0.235,0.108-0.473,0.15-0.707
			c0.017-0.076,0.03-0.153,0.043-0.229c0.018-0.105,0.038-0.21,0.054-0.316c0.019-0.116,0.035-0.234,0.051-0.353
			c0.014-0.1,0.027-0.2,0.037-0.302c0.014-0.095,0.024-0.191,0.032-0.288c0.022-0.214,0.039-0.429,0.052-0.646
			c0.007-0.151,0.015-0.305,0.021-0.459v-0.01c0.005-0.171,0.008-0.343,0.008-0.515v-9.884l8.192,3.953
			c1.072-1.518,3.458-1.724,5.321-0.457l20.259,13.743c3.73,2.531,8.498,2.119,10.646-0.917l2.278-3.218
			c1.032-1.459,1.312-3.341,0.774-5.232l-8.247-29.048c-1.516-5.321-5.196-10.237-10.242-13.662l-4.501-3.053
			c-2.729-1.852-6.132-2.185-8.627-0.848l-23.727,12.698c-2.674,1.432-5.691,2.222-8.841,2.397c-0.124,0.15-0.25,0.298-0.374,0.447
			c-2.28-0.216-4.576-0.291-6.834-0.295c-0.097,0-0.172-0.025-0.233-0.07h-28.962c-0.049,0.002-0.095,0.002-0.143,0.002H94.432
			c-0.151,0-0.298,0-0.448,0.004c-0.092,0-0.18,0.001-0.271,0.001c-0.104,0.003-0.209,0.007-0.313,0.009
			c-0.103,0.002-0.205,0.007-0.309,0.008c-0.084,0-0.167,0.002-0.25,0.008h-0.018c-0.056,0.002-0.112,0.002-0.166,0.006
			c-0.244,0.008-0.492,0.021-0.735,0.033c-0.16,0.011-0.322,0.02-0.483,0.033c-0.041,0-0.078,0.001-0.118,0.007
			c-0.333,0.022-0.663,0.052-0.993,0.084c-0.168,0.015-0.34,0.034-0.509,0.052c-0.934,0.103-1.854,0.235-2.757,0.404
			c-0.188,0.035-0.379,0.072-0.569,0.108c-0.019,0.003-0.035,0.005-0.054,0.011c-0.188,0.037-0.375,0.076-0.563,0.118
			c-0.196,0.039-0.392,0.084-0.587,0.128c-0.26,0.062-0.518,0.124-0.775,0.189c-0.22,0.056-0.438,0.112-0.651,0.171
			c-0.057,0.015-0.113,0.028-0.17,0.047c-0.238,0.066-0.472,0.131-0.705,0.202c-1.259,0.377-2.481,0.812-3.662,1.303
			c-0.28,0.117-0.555,0.237-0.832,0.36c-0.072,0.031-0.145,0.065-0.218,0.101c-0.182,0.081-0.364,0.164-0.544,0.255
			c-0.088,0.039-0.174,0.081-0.259,0.123c-0.191,0.092-0.379,0.183-0.564,0.279c-0.086,0.04-0.172,0.085-0.254,0.129
			c-2.254,1.169-4.323,2.557-6.157,4.123c-0.092,0.077-0.183,0.156-0.271,0.235c-1.895,1.653-3.535,3.509-4.87,5.516
			c-0.115,0.176-0.228,0.353-0.34,0.528c-0.301,0.479-0.588,0.967-0.854,1.467c-0.107,0.197-0.212,0.399-0.314,0.6
			c-0.126,0.251-0.246,0.503-0.361,0.761c-0.058,0.121-0.113,0.242-0.164,0.365c-0.075,0.166-0.145,0.333-0.215,0.504
			c-0.032,0.078-0.063,0.155-0.093,0.231c-0.296,0.743-0.552,1.5-0.767,2.27c-0.039,0.128-0.074,0.257-0.105,0.386
			c-0.18,0.679-0.325,1.363-0.438,2.061c-0.015,0.096-0.031,0.195-0.045,0.295c-0.029,0.192-0.054,0.386-0.078,0.58
			c-0.025,0.2-0.045,0.4-0.063,0.599c-0.012,0.114-0.023,0.229-0.031,0.343c-0.008,0.09-0.013,0.178-0.019,0.268
			c-0.006,0.073-0.01,0.149-0.012,0.223c-0.008,0.135-0.014,0.271-0.02,0.407c-0.004,0.085-0.008,0.168-0.008,0.253
			c-0.002,0.073-0.005,0.146-0.005,0.221C61.421,751.938,61.421,752.053,61.421,752.168z"></path>
      <path
        fill="#A89F96"
        d="M61.421,752.168v26.755h123.239c0.188,0,0.375-0.002,0.563-0.005c0.043,0,0.087-0.003,0.126-0.003
			c0.193-0.005,0.386-0.011,0.579-0.018c0.153-0.005,0.3-0.017,0.451-0.021c0.06-0.003,0.118-0.006,0.177-0.011
			c0.156-0.01,0.311-0.021,0.464-0.034c0.051-0.003,0.1-0.006,0.151-0.011c0.014-0.002,0.023-0.002,0.032-0.002
			c0.038-0.003,0.075-0.005,0.113-0.011c0.027,0,0.051-0.003,0.075-0.009c0.136-0.011,0.273-0.023,0.407-0.036
			c0.097-0.009,0.191-0.017,0.284-0.028c0.081-0.011,0.161-0.021,0.242-0.03c0.147-0.021,0.294-0.039,0.442-0.059
			c0.038-0.006,0.073-0.009,0.107-0.014c0.035-0.007,0.069-0.011,0.104-0.016s0.067-0.012,0.097-0.014
			c0.163-0.024,0.327-0.05,0.491-0.076c0.03-0.005,0.059-0.011,0.089-0.016c0.391-0.065,0.78-0.14,1.164-0.219
			c0.394-0.083,0.786-0.172,1.168-0.269c0.58-0.148,1.152-0.311,1.71-0.493c0.123-0.039,0.244-0.078,0.364-0.12
			c0.25-0.08,0.496-0.167,0.743-0.26c0.167-0.061,0.335-0.127,0.503-0.189c0.021-0.011,0.042-0.019,0.063-0.025
			c0.172-0.069,0.341-0.138,0.51-0.208c0.164-0.066,0.325-0.137,0.483-0.208c0.54-0.236,1.067-0.488,1.582-0.756
			c0.221-0.116,0.438-0.234,0.653-0.354c0.021-0.011,0.045-0.024,0.066-0.036c0.191-0.109,0.379-0.217,0.566-0.33
			c0.03-0.018,0.059-0.036,0.089-0.053c0.187-0.112,0.372-0.229,0.557-0.345c0.072-0.049,0.142-0.094,0.215-0.14
			c0.142-0.092,0.282-0.187,0.421-0.281c0.027-0.021,0.056-0.04,0.086-0.061c0.195-0.135,0.389-0.271,0.579-0.412
			c0.19-0.14,0.38-0.283,0.566-0.429c0.032-0.025,0.063-0.05,0.094-0.075c0.145-0.117,0.293-0.233,0.436-0.354
			c0.042-0.033,0.083-0.07,0.125-0.104c0.171-0.144,0.341-0.289,0.507-0.438c0.48-0.433,0.939-0.88,1.374-1.345
			c0.088-0.096,0.174-0.188,0.26-0.283c0.121-0.134,0.241-0.271,0.357-0.407c0.166-0.195,0.33-0.392,0.488-0.591
			c0.523-0.659,1.001-1.348,1.427-2.059c0.072-0.119,0.143-0.237,0.209-0.357c0.07-0.118,0.137-0.24,0.202-0.358
			c0.168-0.314,0.33-0.632,0.482-0.954c0.029-0.068,0.062-0.139,0.097-0.206c0.008-0.01,0.01-0.021,0.014-0.034
			c0.067-0.153,0.134-0.308,0.198-0.462c0.111-0.262,0.212-0.527,0.306-0.793c0.041-0.105,0.076-0.211,0.11-0.315
			c0.016-0.048,0.032-0.092,0.048-0.14c0.038-0.118,0.075-0.236,0.11-0.356c0.042-0.14,0.085-0.28,0.123-0.422
			c0.054-0.196,0.105-0.39,0.15-0.586c0.057-0.235,0.108-0.473,0.15-0.707c0.017-0.076,0.03-0.153,0.043-0.229
			c0.018-0.105,0.038-0.21,0.054-0.316c0.019-0.116,0.035-0.234,0.051-0.353c0.014-0.1,0.027-0.2,0.037-0.302
			c0-0.005,0-0.009,0.003-0.014l8.303-7.838c1.075-1.52,3.458-1.723,5.321-0.457l16.782,11.387c0.328-0.32,0.622-0.664,0.89-1.043
			l3.099-4.379c1.403-1.982,1.784-4.544,1.054-7.111l-3.214-11.302c0.298-0.238,0.566-0.518,0.792-0.835
			c1.612-2.277,0.649-5.663-2.149-7.559c-0.392-0.266-0.8-0.482-1.215-0.665l-5.429-19.132c-0.118-0.395-0.241-0.794-0.37-1.19
			v-0.002c-2.585-1.443-5.617-1.62-7.897-0.402l-23.727,12.697c-2.674,1.433-5.691,2.22-8.841,2.396
			c-0.125,0.153-0.249,0.304-0.375,0.453c-2.28-0.216-4.576-0.291-6.834-0.295c-0.097,0-0.172-0.025-0.233-0.07h-28.82
			c0.05,0,0.099,0,0.146-0.002c0.065,0,0.127,0,0.188-0.003c0.064,0,0.125,0,0.187-0.006c0.067-0.003,0.137-0.003,0.204-0.009
			c0.069-0.005,0.14-0.007,0.207-0.01c0.314-0.013,0.625-0.031,0.934-0.059c-0.756,0.059-1.52,0.088-2.294,0.088H94.284
			c-0.099,0-0.202,0-0.3,0.006c-0.092,0-0.18,0.001-0.271,0.001c-0.104,0.003-0.209,0.007-0.313,0.009
			c-0.103,0.002-0.205,0.007-0.309,0.008c-0.084,0-0.167,0.002-0.25,0.008h-0.018c-0.056,0.002-0.112,0.002-0.166,0.006
			c-0.244,0.008-0.492,0.021-0.735,0.033c-0.16,0.011-0.322,0.02-0.483,0.033c-0.041,0-0.078,0.001-0.118,0.007
			c-0.333,0.022-0.663,0.052-0.993,0.084c-0.168,0.015-0.34,0.034-0.509,0.052c-0.934,0.103-1.854,0.235-2.757,0.404
			c-0.188,0.035-0.379,0.072-0.569,0.108c-0.019,0.003-0.035,0.005-0.054,0.011c-0.188,0.037-0.375,0.076-0.563,0.118
			c-0.196,0.039-0.392,0.084-0.587,0.128c-0.26,0.062-0.518,0.124-0.775,0.189c-0.22,0.056-0.438,0.112-0.651,0.171
			c-0.057,0.015-0.113,0.028-0.17,0.047c-0.238,0.066-0.472,0.131-0.705,0.202c-1.259,0.377-2.481,0.812-3.662,1.303
			c-0.28,0.117-0.555,0.237-0.832,0.36c-0.072,0.031-0.145,0.065-0.218,0.101c-0.182,0.081-0.364,0.164-0.544,0.255
			c-0.088,0.039-0.174,0.081-0.259,0.123c-0.191,0.092-0.379,0.183-0.564,0.279c-0.086,0.04-0.172,0.085-0.254,0.129
			c-2.254,1.169-4.323,2.557-6.157,4.123c-0.092,0.077-0.183,0.156-0.271,0.235c-1.895,1.653-3.535,3.509-4.87,5.516
			c-0.115,0.176-0.228,0.353-0.34,0.528c-0.301,0.479-0.588,0.967-0.854,1.467c-0.107,0.197-0.212,0.399-0.314,0.6
			c-0.126,0.251-0.246,0.503-0.361,0.761c-0.058,0.121-0.113,0.242-0.164,0.365c-0.075,0.166-0.145,0.333-0.215,0.504
			c-0.032,0.078-0.063,0.155-0.093,0.231c-0.296,0.743-0.552,1.5-0.767,2.27c-0.039,0.128-0.074,0.257-0.105,0.386
			c-0.18,0.679-0.325,1.363-0.438,2.061c-0.015,0.096-0.031,0.195-0.045,0.295c-0.029,0.192-0.054,0.386-0.078,0.58
			c-0.025,0.2-0.045,0.4-0.063,0.599c-0.012,0.114-0.023,0.229-0.031,0.343c-0.008,0.09-0.013,0.178-0.019,0.268
			c-0.006,0.073-0.01,0.149-0.012,0.223c-0.008,0.135-0.014,0.271-0.02,0.407c-0.004,0.085-0.008,0.168-0.008,0.253
			c-0.002,0.073-0.005,0.146-0.005,0.221C61.421,751.938,61.421,752.053,61.421,752.168z"></path>
      <path
        fill="#302E2C"
        d="M93.604,748.828h74.771c1.958,0,3.879-0.102,5.749-0.349h0.002c15.381,1.589,32.184-12.733,32.184-12.733
			c10.91-9.74,25.572-18.16,25.572-18.16c6.438-0.588,12.34,6.852,12.34,6.852c2.682,1.011,2.339-1.366,2.339-1.366l-2.044-3.097
			c-1.494-4.156-12.954-10.019-12.954-10.019c-3.155-1.758-7.886,1.074-7.886,1.074l-15.379,8.231
			c-13.57,8.616-22.911,6.224-22.911,6.224l-29.195-0.07c-0.049,0.002-0.095,0.002-0.143,0.002H94.432c-0.151,0-0.298,0-0.448,0.004
			c-0.092,0-0.18,0.001-0.271,0.001c-0.104,0.003-0.209,0.007-0.313,0.009c-0.103,0.002-0.205,0.007-0.309,0.008
			c-0.148,0.005-0.295,0.01-0.443,0.019C74.141,726.264,75.075,748.827,93.604,748.828z"></path>
      <path fill="#8C8279" d="M219.991,751.268c-20.722,9.015-34.492,7.893-34.492,7.893H73.75c-6.858,0-12.415,5.309-12.415,11.856
			v7.906H185.5C185.5,778.923,205.238,781.033,219.991,751.268z"></path>
      <path fill="#726860" d="M106.607,762.202c10.777,0,21.375,2.236,30.798,6.499l22.606,10.227h-53.404V762.202L106.607,762.202z"></path>
      <path
        fill="#B58876"
        d="M77.853,778.927v10.036h8.214c4.196,0,8.148-0.854,11.606-2.36l0.531,2.21
			c0.092,0.382,0.456,0.613,0.815,0.514c0.3-0.084,0.501-0.374,0.501-0.694c0-0.061-0.008-0.122-0.022-0.181l-0.584-2.426
			c0.887-0.442,1.739-0.93,2.546-1.457l1.687,2.128c0.24,0.301,0.662,0.338,0.941,0.08c0.156-0.143,0.236-0.345,0.236-0.551
			c0-0.164-0.053-0.327-0.161-0.462l-1.572-1.979c0.845-0.624,1.64-1.295,2.374-2.009l2.028,1.478
			c0.306,0.225,0.722,0.139,0.926-0.191c0.078-0.123,0.117-0.262,0.117-0.402c0-0.229-0.103-0.453-0.292-0.593l-1.797-1.312
			c2.999-3.323,4.767-7.426,4.767-11.863v-6.69H98.393C87.047,762.202,77.852,769.691,77.853,778.927z"></path>
      <path fill="#C69E91" d="M98.392,762.202L98.392,762.202v5.019c0,6.463-6.437,11.703-14.377,11.703h-6.162l0,0
			C77.853,769.69,87.047,762.202,98.392,762.202z"></path>
      <path
        fill="#998C6B"
        d="M243.308,709.405l16.883,11.455c-2.148,3.036-6.912,3.444-10.643,0.913l-10.13-6.873l-5.839,8.249
			c-1.073,1.519-3.457,1.725-5.322,0.458c-1.865-1.264-2.505-3.522-1.431-5.039l5.839-8.25
			C234.812,707.285,239.578,706.875,243.308,709.405z"></path>
      <path fill="#C9C1A7" d="M243.308,709.405l15.972,10.836c-2.331,0.851-5.289,0.479-7.786-1.215l-15.972-10.837
			C237.85,707.339,240.81,707.71,243.308,709.405z"></path>
      <path fill="#66625E" d="M239.417,714.901l-5.839,8.249c-1.074,1.518-3.456,1.725-5.322,0.458c-1.865-1.265-2.506-3.52-1.43-5.038
			l5.838-8.249L239.417,714.901z"></path>
      <path fill="#3F3B37" d="M238.131,734.373c-0.932-0.633-2.124-0.53-2.66,0.229c-0.538,0.76-0.217,1.886,0.716,2.519
			c0.931,0.633,2.122,0.531,2.659-0.229C239.383,736.133,239.063,735.006,238.131,734.373z"></path>
      <path fill="#B29A90" d="M257.005,759.383c-0.105,0.98-0.437,1.901-0.996,2.692l-2.281,3.22c-2.148,3.037-6.914,3.449-10.645,0.917
			l5.836-8.245c1.076-1.521,3.462-1.726,5.326-0.462l2.762,1.874L257.005,759.383z"></path>
      <path
        fill="#D8BFB8"
        d="M257.005,759.383L257.005,759.383c-0.105,0.98-0.437,1.901-0.996,2.692l-2.281,3.22
			c-0.072,0.104-0.148,0.202-0.223,0.297c-1.362,1.677-4.531-0.637-3.289-2.392l2.437-3.442
			C253.531,758.517,255.479,758.348,257.005,759.383z"></path>
      <g id="spots">
        <path id="XMLID_2217_" fill="#3F3B37" d="M96.365,742.433h16.329c3.606,0,6.532,2.864,6.532,6.395
				c0,3.531-2.925,6.396-6.532,6.396H96.365c-3.607,0-6.53-2.864-6.53-6.396C89.834,745.297,92.757,742.433,96.365,742.433z"></path>
        <path id="XMLID_3_" fill="#3F3B37" d="M176.808,763.677h9.733c2.15,0,3.895,1.118,3.895,2.497c0,1.377-1.744,2.495-3.895,2.495
				h-9.733c-2.15,0-3.894-1.118-3.894-2.495C172.914,764.795,174.658,763.677,176.808,763.677z"></path>
        <path id="XMLID_1_" fill="#3F3B37" d="M172.879,740.698h19.453c4.297,0,7.781,4.359,7.781,9.737c0,5.38-3.484,9.738-7.781,9.738
				h-19.453c-4.297,0-7.782-4.358-7.782-9.738C165.098,745.057,168.582,740.698,172.879,740.698z"></path>
        <path id="XMLID_2_" fill="#3F3B37" d="M197.232,761.828h2.057c0.454,0,0.823,0.449,0.823,1.001c0,0.554-0.369,1.001-0.823,1.001
				h-2.057c-0.455,0-0.822-0.447-0.822-1.001C196.41,762.277,196.778,761.828,197.232,761.828z"></path>
      </g>
    </g>
</svg>