<svg
  version="1.1"
  id="Layer_1"
  xmlns="http://www.w3.org/2000/svg"
  xmlns:xlink="http://www.w3.org/1999/xlink"
  width="100%"
  height="100%"
  viewBox="0 0 1332.014 947.007"
  enable-background="new 0 0 1332.014 947.007"
  xml:space="preserve"
  style="width:100%;height:100%;display:block"
>
<g id="cows">
    <g id="cow_3">
      <path
        class="s-cow-grass-chew"
        fill="#54892E"
        d="M390.253,723.735c-0.038,0.924,1.907,4.566-0.161,6.804c1.231-2.575-0.157-6.057-1.194-8.563
			c-3.798-1.411-6.29-1.864-8.207-0.299c1.008-3.29,6.537-1.159,8.011-0.665c0.041,0.014,0.078,0.025,0.112,0.036
			c-0.029-0.016-0.059-0.03-0.091-0.046c-2.972-1.527-8.331-2.613-8.886-6.555c1.243,2.556,3.875,3.947,8.247,5.305
			c-0.513-0.768-4.232-2.563-3.882-5.591c0.521,2.781,3.643,4.766,5.952,6.176c0.015,0.009,0.029,0.018,0.044,0.026
			c0.205,0.323,0.405,0.635,0.602,0.932c2.287,3.482,4.049,5.383,6.559,5.245c-2.831,2.118-6.141-3.197-6.931-4.284
			c1.472,2.996,5.253,7.078,3.36,10.626C394.29,730.084,392.984,727.409,390.253,723.735z"></path>
      <path fill="#3F3B37" d="M470.128,733.644c0,0.828,0.809,1.501,1.807,1.501l0,0c0.998,0,1.807-0.673,1.807-1.501v-15.021
			c0-0.829-0.81-1.503-1.807-1.503h-1.807V733.644z"></path>
      <g id="legs_3_">
        <g id="lower_right_3_">
          <path
            fill="#594B42"
            d="M462.01,726.133v10.514c0,0.553-0.358,1.035-0.892,1.296c-0.561,0.273-0.915,0.766-0.915,1.305v4.909
					c0,0.831-0.809,1.503-1.807,1.503v3.005h-5.419l1.307-2.173c0.306-0.511,0.931-0.832,1.616-0.832h0.69v-6.41
					c0-0.541-0.354-1.03-0.915-1.305c-0.534-0.262-0.893-0.744-0.893-1.296v-10.515L462.01,726.133L462.01,726.133L462.01,726.133z"></path>
          <path fill="#302C28" d="M455.89,745.66c-0.685,0-1.31,0.321-1.615,0.832l-1.308,2.172h5.419v-3.004H455.89L455.89,745.66z"></path>
        </g>
        <g id="lower_left_3_">
          <path
            fill="#594B42"
            d="M415.934,736.649c0,0.551,0.358,1.034,0.892,1.294c0.56,0.274,0.915,0.766,0.915,1.306v6.411h-0.69
					c-0.685,0-1.31,0.321-1.616,0.83l-1.307,2.174h5.42v-3.004c0.997,0,1.806-0.672,1.806-1.503v-4.909
					c0-0.539,0.354-1.029,0.915-1.305c0.534-0.262,0.892-0.743,0.892-1.296v-10.514h-7.227V736.649L415.934,736.649z"></path>
          <path fill="#302C28" d="M417.051,745.66h2.497v3.004h-5.419l1.307-2.172C415.741,745.981,416.366,745.66,417.051,745.66z"></path>
        </g>
        <g id="uppper_right_3_">
          <path
            fill="#8C8279"
            d="M471.936,727.067v9.551c0,0.547-0.359,1.025-0.893,1.283c-0.56,0.273-0.914,0.759-0.914,1.295v4.867
					c0,0.824-0.811,1.491-1.808,1.491v2.98h-5.419l1.307-2.155c0.306-0.506,0.932-0.825,1.616-0.825h0.69v-6.358
					c0-0.534-0.354-1.021-0.915-1.293c-0.533-0.259-1.361-1.233-1.361-1.781c0,0-0.261-0.977-0.578-2.391
					c-0.382-1.702-0.759-6.663-0.759-6.663c0-3.76,2.205-5.51,5.057-5.264C469.115,721.902,471.934,720.587,471.936,727.067z"></path>
          <path fill="#423B34" d="M468.322,745.66v3.004h-5.42l1.307-2.172c0.306-0.511,0.931-0.832,1.616-0.832H468.322L468.322,745.66z"></path>
        </g>
        <g id="upper_left_3_">
          <path
            fill="#8C8279"
            d="M428.54,731.58l0.041,4.903c0.004,0.552-0.352,1.037-0.882,1.304c-0.558,0.279-0.909,0.773-0.904,1.313
					l0.04,4.91c0.007,0.83-0.797,1.509-1.794,1.519l0.024,3.005l-5.418,0.054l1.289-2.187c0.301-0.512,0.924-0.841,1.609-0.848
					l0.69-0.007l-0.053-6.409c-0.004-0.541-0.362-1.028-0.925-1.298c-0.535-0.254-0.898-0.733-0.902-1.286l-0.061-7.51h-0.001
					c0-0.004-0.001-0.007-0.001-0.01c-0.013-0.137-0.021-0.274-0.022-0.415c-0.019-2.237,1.59-4.068,3.592-4.087
					c1.897-0.02,3.466,1.594,3.643,3.666c0.002,0.034,0.005,0.067,0.008,0.102l0.027,3.28H428.54L428.54,731.58L428.54,731.58z"></path>
          <path fill="#423B34" d="M420.854,746.49l-1.307,2.174h5.419v-3.005h-2.497C421.786,745.66,421.16,745.981,420.854,746.49z"></path>
        </g>
      </g>
      <path
        fill="#E2DEDC"
        d="M471.934,717.121v12.018h-54.193c-0.046,0-0.093,0-0.139-0.001c-0.037,0-0.072-0.001-0.108-0.002
			c-0.019,0-0.038-0.002-0.056-0.002c-0.085-0.002-0.17-0.004-0.255-0.008c-0.048-0.001-0.097-0.004-0.145-0.006
			c-0.018-0.002-0.036-0.003-0.053-0.004c-0.026-0.001-0.052-0.002-0.078-0.004c-0.091-0.005-0.18-0.013-0.27-0.021
			c-0.006-0.002-0.011-0.002-0.014-0.002c-0.017,0-0.033-0.002-0.05-0.004c-0.012,0-0.022-0.002-0.033-0.004
			c-0.06-0.005-0.121-0.01-0.18-0.017c-0.042-0.003-0.083-0.007-0.125-0.013c-0.035-0.005-0.07-0.01-0.106-0.013
			c-0.065-0.008-0.129-0.018-0.195-0.026c-0.015-0.002-0.031-0.005-0.047-0.007c-0.015-0.003-0.031-0.005-0.046-0.007
			c-0.015-0.003-0.029-0.006-0.042-0.007c-0.072-0.011-0.144-0.021-0.215-0.033c-0.013-0.003-0.026-0.006-0.039-0.008
			c-0.172-0.028-0.344-0.062-0.512-0.098c-0.173-0.037-0.346-0.077-0.514-0.122c-0.254-0.065-0.506-0.139-0.751-0.221
			c-0.054-0.018-0.107-0.035-0.161-0.054c-0.109-0.036-0.218-0.075-0.327-0.116c-0.073-0.027-0.147-0.058-0.22-0.085
			c-0.01-0.005-0.019-0.009-0.029-0.013c-0.075-0.03-0.149-0.061-0.224-0.093c-0.072-0.029-0.143-0.062-0.212-0.093
			c-0.237-0.106-0.469-0.22-0.696-0.34c-0.097-0.053-0.193-0.105-0.287-0.159c-0.01-0.005-0.02-0.011-0.03-0.017
			c-0.084-0.049-0.167-0.097-0.249-0.147c-0.013-0.009-0.026-0.017-0.039-0.024c-0.083-0.05-0.164-0.103-0.246-0.155
			c-0.032-0.021-0.063-0.041-0.094-0.063c-0.063-0.041-0.124-0.084-0.185-0.126c-0.012-0.01-0.025-0.018-0.038-0.027
			c-0.086-0.06-0.171-0.121-0.254-0.185c-0.084-0.063-0.167-0.128-0.249-0.192c-0.015-0.012-0.027-0.022-0.042-0.034
			c-0.063-0.053-0.128-0.105-0.191-0.159c-0.019-0.015-0.037-0.031-0.056-0.047c-0.076-0.064-0.149-0.13-0.223-0.197
			c-0.211-0.194-0.413-0.395-0.604-0.604c-0.039-0.042-0.077-0.085-0.114-0.127c-0.053-0.061-0.106-0.122-0.157-0.183
			c-0.073-0.088-0.145-0.176-0.214-0.266c-0.23-0.296-0.44-0.605-0.628-0.925c-0.032-0.054-0.063-0.106-0.092-0.161
			c-0.031-0.053-0.06-0.107-0.088-0.16c-0.074-0.142-0.145-0.284-0.212-0.43c-0.013-0.03-0.027-0.061-0.042-0.092
			c-0.003-0.004-0.005-0.009-0.006-0.016c-0.029-0.068-0.059-0.138-0.087-0.207c-0.048-0.118-0.093-0.237-0.135-0.356
			c-0.018-0.047-0.033-0.095-0.048-0.142c-0.007-0.021-0.015-0.041-0.021-0.063c-0.017-0.053-0.034-0.106-0.049-0.16
			c-0.019-0.063-0.038-0.126-0.054-0.19c-0.023-0.087-0.046-0.174-0.066-0.263c-0.025-0.105-0.047-0.211-0.066-0.317
			c-0.007-0.033-0.013-0.068-0.019-0.103c-0.008-0.047-0.017-0.094-0.024-0.143c-0.008-0.052-0.015-0.105-0.022-0.158
			c-0.006-0.045-0.012-0.09-0.017-0.136c-0.006-0.042-0.011-0.086-0.014-0.13c-0.01-0.095-0.017-0.192-0.022-0.288
			c-0.003-0.069-0.007-0.137-0.01-0.207v-0.005c-0.002-0.076-0.003-0.153-0.003-0.23v-4.439l-3.603,1.775
			c-0.472-0.682-1.52-0.773-2.34-0.205l-8.908,6.173c-1.641,1.137-3.737,0.951-4.682-0.412l-1.001-1.445
			c-0.454-0.655-0.577-1.501-0.341-2.351l3.627-13.046c0.667-2.39,2.285-4.598,4.503-6.136l1.979-1.372
			c1.2-0.83,2.696-0.98,3.793-0.38l10.433,5.703c1.176,0.643,2.503,0.998,3.888,1.076c0.054,0.068,0.11,0.134,0.164,0.201
			c1.003-0.097,2.013-0.131,3.006-0.132c0.042,0,0.076-0.012,0.103-0.031h12.736c0.021,0,0.042,0,0.063,0h27.096
			c0.066,0,0.131,0,0.197,0.002c0.04,0,0.079,0.001,0.119,0.001c0.046,0.001,0.091,0.002,0.138,0.003
			c0.045,0.002,0.09,0.003,0.136,0.004c0.037,0,0.073,0.001,0.11,0.003h0.008c0.024,0.002,0.05,0.002,0.073,0.003
			c0.107,0.004,0.216,0.01,0.323,0.016c0.071,0.004,0.142,0.009,0.213,0.014c0.018,0,0.034,0.002,0.052,0.004
			c0.146,0.011,0.292,0.023,0.437,0.038c0.074,0.007,0.149,0.016,0.224,0.023c0.411,0.045,0.815,0.105,1.212,0.182
			c0.083,0.016,0.167,0.031,0.251,0.049c0.008,0,0.015,0.002,0.023,0.004c0.083,0.017,0.165,0.034,0.248,0.053
			c0.086,0.018,0.172,0.038,0.258,0.058c0.115,0.027,0.228,0.056,0.341,0.086c0.097,0.024,0.192,0.05,0.287,0.076
			c0.025,0.007,0.05,0.013,0.075,0.021c0.104,0.029,0.207,0.059,0.31,0.091c0.553,0.169,1.091,0.364,1.61,0.585
			c0.123,0.052,0.244,0.106,0.365,0.161c0.032,0.015,0.064,0.03,0.096,0.046c0.081,0.036,0.161,0.074,0.24,0.114
			c0.039,0.018,0.076,0.036,0.114,0.056c0.083,0.04,0.167,0.082,0.248,0.125c0.038,0.018,0.076,0.038,0.111,0.058
			c0.991,0.525,1.901,1.148,2.708,1.853c0.04,0.034,0.08,0.069,0.119,0.105c0.833,0.743,1.554,1.575,2.142,2.478
			c0.05,0.078,0.1,0.157,0.149,0.236c0.132,0.216,0.259,0.436,0.375,0.659c0.047,0.089,0.094,0.18,0.139,0.27
			c0.055,0.113,0.108,0.226,0.159,0.342c0.024,0.055,0.05,0.108,0.072,0.164c0.033,0.074,0.063,0.149,0.094,0.226
			c0.014,0.036,0.028,0.07,0.042,0.104c0.13,0.333,0.243,0.673,0.337,1.019c0.017,0.058,0.032,0.116,0.046,0.174
			c0.079,0.305,0.143,0.612,0.192,0.925c0.007,0.044,0.014,0.089,0.02,0.134c0.013,0.086,0.023,0.173,0.035,0.261
			c0.011,0.089,0.02,0.179,0.028,0.269c0.005,0.051,0.009,0.103,0.014,0.153c0.003,0.04,0.005,0.08,0.008,0.12
			c0.002,0.033,0.004,0.067,0.005,0.101c0.003,0.061,0.006,0.121,0.009,0.183c0.002,0.038,0.003,0.076,0.003,0.113
			c0.001,0.033,0.002,0.065,0.002,0.1C471.934,717.016,471.934,717.069,471.934,717.121z"></path>
      <path
        fill="#A89F96"
        d="M471.934,717.121v12.017h-54.193c-0.083,0-0.165-0.001-0.248-0.002c-0.019,0-0.038-0.002-0.056-0.002
			c-0.085-0.002-0.17-0.004-0.255-0.008c-0.067-0.003-0.132-0.008-0.198-0.01c-0.026-0.001-0.052-0.002-0.078-0.004
			c-0.068-0.005-0.137-0.01-0.204-0.016c-0.022-0.001-0.043-0.003-0.066-0.005c-0.006-0.002-0.011-0.002-0.014-0.002
			c-0.017,0-0.033-0.002-0.05-0.004c-0.012,0-0.022-0.002-0.033-0.004c-0.06-0.005-0.121-0.011-0.18-0.017
			c-0.042-0.003-0.083-0.007-0.125-0.013c-0.035-0.005-0.07-0.01-0.106-0.013c-0.065-0.01-0.129-0.018-0.195-0.027
			c-0.016-0.003-0.032-0.004-0.047-0.006c-0.015-0.003-0.031-0.005-0.046-0.007c-0.015-0.003-0.029-0.006-0.042-0.007
			c-0.072-0.011-0.144-0.021-0.215-0.033c-0.013-0.003-0.026-0.006-0.039-0.008c-0.172-0.029-0.344-0.063-0.512-0.098
			c-0.173-0.038-0.346-0.078-0.514-0.122c-0.254-0.065-0.506-0.139-0.751-0.221c-0.054-0.018-0.107-0.035-0.161-0.054
			c-0.109-0.036-0.218-0.075-0.327-0.116c-0.073-0.027-0.147-0.058-0.22-0.085c-0.01-0.005-0.019-0.009-0.029-0.013
			c-0.075-0.03-0.149-0.061-0.224-0.093c-0.072-0.029-0.143-0.062-0.212-0.093c-0.237-0.106-0.469-0.22-0.696-0.34
			c-0.097-0.053-0.193-0.105-0.287-0.159c-0.01-0.005-0.02-0.011-0.03-0.017c-0.084-0.049-0.167-0.097-0.249-0.147
			c-0.013-0.009-0.026-0.017-0.039-0.024c-0.083-0.05-0.164-0.103-0.246-0.155c-0.032-0.021-0.063-0.041-0.094-0.063
			c-0.063-0.041-0.124-0.084-0.185-0.126c-0.012-0.01-0.025-0.018-0.038-0.027c-0.086-0.06-0.171-0.121-0.254-0.185
			c-0.084-0.063-0.167-0.128-0.249-0.192c-0.015-0.012-0.027-0.022-0.042-0.034c-0.063-0.053-0.128-0.105-0.191-0.159
			c-0.019-0.015-0.037-0.031-0.056-0.047c-0.076-0.064-0.149-0.13-0.223-0.197c-0.211-0.194-0.413-0.395-0.604-0.604
			c-0.039-0.042-0.077-0.085-0.114-0.127c-0.053-0.061-0.106-0.122-0.157-0.183c-0.073-0.088-0.145-0.176-0.214-0.266
			c-0.23-0.296-0.44-0.605-0.628-0.925c-0.032-0.054-0.063-0.106-0.092-0.161c-0.031-0.053-0.06-0.107-0.088-0.16
			c-0.074-0.142-0.145-0.284-0.212-0.43c-0.013-0.03-0.027-0.061-0.042-0.092c-0.003-0.004-0.005-0.009-0.006-0.016
			c-0.029-0.068-0.059-0.138-0.087-0.207c-0.048-0.118-0.093-0.237-0.135-0.356c-0.018-0.047-0.033-0.095-0.048-0.142
			c-0.007-0.021-0.015-0.041-0.021-0.063c-0.017-0.053-0.034-0.106-0.049-0.16c-0.019-0.063-0.038-0.126-0.054-0.19
			c-0.023-0.087-0.046-0.174-0.066-0.263c-0.025-0.105-0.047-0.211-0.066-0.317c-0.007-0.033-0.013-0.068-0.019-0.103
			c-0.008-0.047-0.017-0.094-0.024-0.143c-0.008-0.052-0.015-0.105-0.022-0.158c-0.006-0.045-0.012-0.09-0.017-0.136
			c0-0.002,0-0.003-0.001-0.006l-3.651-3.52c-0.473-0.683-1.52-0.774-2.34-0.205l-7.38,5.113c-0.144-0.144-0.273-0.299-0.391-0.469
			l-1.363-1.966c-0.617-0.891-0.784-2.041-0.464-3.194l1.414-5.076c-0.131-0.107-0.249-0.231-0.348-0.375
			c-0.709-1.022-0.285-2.543,0.945-3.395c0.172-0.119,0.352-0.217,0.534-0.299l2.388-8.593c0.052-0.177,0.106-0.356,0.163-0.534
			v-0.002c1.137-0.648,2.47-0.728,3.472-0.181l10.434,5.704c1.176,0.643,2.503,0.996,3.888,1.075
			c0.056,0.068,0.11,0.136,0.165,0.203c1.003-0.097,2.013-0.131,3.006-0.132c0.042,0,0.076-0.012,0.103-0.031h12.674
			c-0.022,0-0.043,0-0.065-0.002c-0.029,0-0.056,0-0.083-0.001c-0.029,0-0.056,0-0.083-0.003c-0.03-0.001-0.061-0.001-0.09-0.004
			c-0.03-0.002-0.061-0.003-0.091-0.004c-0.138-0.006-0.275-0.015-0.411-0.026c0.333,0.026,0.668,0.04,1.009,0.04h27.098
			c0.044,0,0.089,0,0.132,0.002c0.04,0,0.079,0.001,0.119,0.001c0.046,0.001,0.091,0.002,0.138,0.003
			c0.045,0.002,0.09,0.003,0.136,0.004c0.037,0,0.073,0.001,0.11,0.003h0.008c0.024,0.002,0.05,0.002,0.073,0.003
			c0.107,0.004,0.216,0.01,0.323,0.016c0.071,0.004,0.142,0.009,0.213,0.014c0.018,0,0.034,0.002,0.052,0.004
			c0.146,0.011,0.292,0.023,0.437,0.038c0.074,0.007,0.149,0.016,0.224,0.023c0.411,0.045,0.815,0.105,1.212,0.182
			c0.083,0.016,0.167,0.031,0.251,0.049c0.008,0,0.015,0.002,0.023,0.004c0.083,0.017,0.165,0.034,0.248,0.053
			c0.086,0.018,0.172,0.038,0.258,0.058c0.115,0.027,0.228,0.056,0.341,0.086c0.097,0.024,0.192,0.05,0.287,0.076
			c0.025,0.007,0.05,0.013,0.075,0.021c0.104,0.029,0.207,0.059,0.31,0.091c0.553,0.169,1.091,0.364,1.61,0.585
			c0.123,0.052,0.244,0.106,0.365,0.161c0.032,0.015,0.064,0.03,0.096,0.046c0.081,0.036,0.161,0.074,0.24,0.114
			c0.039,0.018,0.076,0.036,0.114,0.056c0.083,0.04,0.167,0.082,0.248,0.125c0.038,0.018,0.076,0.038,0.111,0.058
			c0.991,0.525,1.901,1.148,2.708,1.853c0.04,0.034,0.08,0.069,0.119,0.105c0.833,0.743,1.554,1.575,2.142,2.478
			c0.05,0.078,0.1,0.157,0.149,0.236c0.132,0.216,0.259,0.436,0.375,0.659c0.047,0.089,0.094,0.18,0.139,0.27
			c0.055,0.113,0.108,0.226,0.159,0.342c0.024,0.055,0.05,0.108,0.072,0.164c0.033,0.074,0.063,0.149,0.094,0.226
			c0.014,0.036,0.028,0.07,0.042,0.104c0.13,0.333,0.243,0.673,0.337,1.019c0.017,0.058,0.032,0.116,0.046,0.174
			c0.079,0.305,0.143,0.612,0.192,0.925c0.007,0.044,0.014,0.089,0.02,0.134c0.013,0.086,0.023,0.173,0.035,0.261
			c0.011,0.089,0.02,0.179,0.028,0.269c0.005,0.051,0.009,0.103,0.014,0.153c0.003,0.04,0.005,0.08,0.008,0.12
			c0.002,0.033,0.004,0.067,0.005,0.101c0.003,0.061,0.006,0.121,0.009,0.183c0.002,0.038,0.003,0.076,0.003,0.113
			c0.001,0.033,0.002,0.065,0.002,0.1C471.934,717.016,471.934,717.069,471.934,717.121z"></path>
      <path
        fill="#302E2C"
        d="M457.782,715.62h-32.879c-0.862,0-1.706-0.045-2.528-0.156h-0.001c-6.764,0.714-14.153-5.719-14.153-5.719
			c-4.797-4.375-11.245-8.157-11.245-8.157c-2.831-0.264-5.426,3.077-5.426,3.077c-1.18,0.455-1.029-0.612-1.029-0.612l0.899-1.392
			c0.657-1.866,5.696-4.5,5.696-4.5c1.387-0.789,3.468,0.482,3.468,0.482l6.762,3.697c5.968,3.87,10.075,2.796,10.075,2.796
			l12.839-0.031c0.021,0,0.042,0,0.063,0h27.096c0.066,0,0.131,0,0.197,0.002c0.04,0,0.079,0.001,0.119,0.001
			c0.046,0.001,0.091,0.002,0.138,0.003c0.045,0.002,0.09,0.003,0.136,0.004c0.065,0.002,0.13,0.005,0.194,0.008
			C466.341,705.486,465.93,715.62,457.782,715.62z"></path>
      <path fill="#8C8279" d="M402.204,716.715c9.113,4.05,15.167,3.546,15.167,3.546h49.141c3.016,0,5.459,2.384,5.459,5.325v3.551
			h-54.601C417.372,729.137,408.692,730.084,402.204,716.715z"></path>
      <path fill="#726860" d="M452.064,721.627c-4.74,0-9.4,1.004-13.543,2.918l-9.941,4.593h23.484V721.627L452.064,721.627z"></path>
      <path
        fill="#B58876"
        d="M464.708,729.138v4.509h-3.612c-1.845,0-3.583-0.384-5.104-1.061l-0.233,0.992
			c-0.041,0.172-0.201,0.275-0.359,0.231c-0.131-0.038-0.22-0.169-0.22-0.313c0-0.027,0.004-0.054,0.01-0.081l0.257-1.09
			c-0.391-0.198-0.765-0.417-1.12-0.654l-0.742,0.956c-0.106,0.135-0.292,0.152-0.415,0.036c-0.068-0.064-0.104-0.155-0.104-0.248
			c0-0.073,0.023-0.146,0.07-0.207l0.692-0.889c-0.372-0.281-0.721-0.582-1.044-0.902l-0.892,0.664
			c-0.135,0.101-0.317,0.062-0.408-0.086c-0.034-0.056-0.051-0.119-0.051-0.182c0-0.104,0.045-0.203,0.128-0.267l0.791-0.589
			c-1.318-1.492-2.096-3.335-2.096-5.328v-3.004h5.419C460.666,721.627,464.709,724.991,464.708,729.138z"></path>
      <path fill="#C69E91" d="M455.676,721.627L455.676,721.627v2.253c0,2.903,2.831,5.257,6.323,5.257h2.709l0,0
			C464.709,724.99,460.666,721.627,455.676,721.627z"></path>
      <path fill="#998C6B" d="M391.952,697.914l-7.425,5.145c0.945,1.363,3.04,1.547,4.68,0.41l4.454-3.087l2.568,3.705
			c0.472,0.682,1.52,0.774,2.34,0.206s1.102-1.582,0.629-2.264l-2.568-3.705C395.687,696.961,393.591,696.778,391.952,697.914z"></path>
      <path fill="#C9C1A7" d="M391.952,697.914l-7.024,4.867c1.025,0.382,2.326,0.215,3.424-0.547l7.023-4.866
			C394.351,696.986,393.05,697.153,391.952,697.914z"></path>
      <path fill="#66625E" d="M393.662,700.382l2.567,3.705c0.473,0.682,1.52,0.773,2.34,0.206c0.82-0.568,1.102-1.582,0.629-2.264
			l-2.567-3.705L393.662,700.382z"></path>
      <path fill="#3F3B37" d="M394.228,709.127c0.41-0.284,0.934-0.237,1.17,0.104s0.095,0.847-0.315,1.131
			c-0.41,0.284-0.933,0.238-1.169-0.103C393.677,709.918,393.818,709.413,394.228,709.127z"></path>
      <path fill="#B29A90" d="M385.928,720.361c0.046,0.44,0.192,0.854,0.438,1.209l1.002,1.446c0.945,1.363,3.041,1.549,4.681,0.412
			l-2.567-3.703c-0.473-0.683-1.522-0.775-2.342-0.208l-1.214,0.842L385.928,720.361z"></path>
      <path fill="#D8BFB8" d="M385.928,720.361L385.928,720.361c0.046,0.44,0.192,0.854,0.438,1.209l1.002,1.446
			c0.032,0.047,0.065,0.092,0.098,0.134c0.599,0.753,1.993-0.286,1.446-1.075l-1.072-1.545
			C387.456,719.971,386.599,719.896,385.928,720.361z"></path>
      <g id="spots_2_">
        <path id="XMLID_11_" fill="#3F3B37" d="M456.568,712.749h-7.18c-1.586,0-2.873,1.286-2.873,2.871
				c0,1.587,1.287,2.872,2.873,2.872h7.18c1.586,0,2.872-1.285,2.872-2.872C459.44,714.035,458.154,712.749,456.568,712.749z"></path>
        <path id="XMLID_10_" fill="#3F3B37" d="M421.194,722.29h-4.28c-0.945,0-1.712,0.502-1.712,1.121c0,0.618,0.767,1.121,1.712,1.121
				h4.28c0.946,0,1.712-0.503,1.712-1.121C422.906,722.792,422.14,722.29,421.194,722.29z"></path>
        <path id="XMLID_9_" fill="#3F3B37" d="M422.921,711.968h-8.554c-1.889,0-3.421,1.958-3.421,4.374
				c0,2.415,1.532,4.373,3.421,4.373h8.554c1.89,0,3.421-1.958,3.421-4.373C426.343,713.926,424.811,711.968,422.921,711.968z"></path>
        <path id="XMLID_8_" fill="#3F3B37" d="M412.212,721.459h-0.905c-0.2,0-0.362,0.201-0.362,0.449s0.162,0.449,0.362,0.449h0.905
				c0.2,0,0.362-0.201,0.362-0.449S412.412,721.459,412.212,721.459z"></path>
      </g>
    </g>
    <g id="cow_2" class="s-cow-move-right">
      <path class="s-cow-move-tale" fill="#3F3B37" d="M65.528,788.958c0,1.846-1.839,3.342-4.109,3.342l0,0c-2.268,0-4.109-1.496-4.109-3.342v-33.445
			c0-1.846,1.839-3.345,4.109-3.345h4.109V788.958z"></path>
      <g id="legs_2_">
        <g id="lower_right_2_" class="s-cow-move-leg-lower">
          <path
            fill="#594B42"
            d="M83.989,772.236v23.409c0,1.229,0.815,2.304,2.028,2.887c1.275,0.606,2.081,1.701,2.081,2.904v10.929
					c0,1.852,1.839,3.347,4.108,3.347v6.689h12.323l-2.972-4.838c-0.696-1.137-2.118-1.852-3.674-1.852h-1.57v-14.274
					c0-1.204,0.807-2.293,2.081-2.904c1.213-0.582,2.029-1.655,2.029-2.886v-23.411H83.99l0,0H83.989z"></path>
          <path fill="#302C28" d="M97.907,815.71c1.556,0,2.978,0.716,3.674,1.853l2.972,4.836H92.23v-6.688H97.907L97.907,815.71z"></path>
        </g>
        <g id="lower_left_2_" class="s-cow-move-leg-lower">
          <path
            fill="#594B42"
            d="M188.769,795.647c0,1.229-0.814,2.304-2.028,2.885c-1.274,0.609-2.081,1.701-2.081,2.904v14.274h1.569
					c1.557,0,2.979,0.716,3.675,1.849l2.972,4.841h-12.325v-6.689c-2.267,0-4.107-1.495-4.107-3.346v-10.931
					c0-1.201-0.807-2.292-2.08-2.902c-1.213-0.585-2.029-1.657-2.029-2.887v-23.409h16.434L188.769,795.647L188.769,795.647z"></path>
          <path fill="#302C28" d="M186.229,815.71h-5.677v6.688h12.324l-2.972-4.836C189.208,816.425,187.787,815.71,186.229,815.71z"></path>
        </g>
        <g id="uppper_right_2_" class="s-cow-move-leg-upper">
          <path
            fill="#8C8279"
            d="M61.418,774.315v21.264c0,1.218,0.817,2.283,2.029,2.857c1.273,0.608,2.078,1.689,2.078,2.884v10.836
					c0,1.834,1.843,3.318,4.111,3.318v6.637h12.323l-2.972-4.798c-0.696-1.128-2.118-1.836-3.675-1.836h-1.569v-14.156
					c0-1.191,0.805-2.276,2.081-2.881c1.213-0.576,3.094-2.746,3.094-3.966c0,0,0.595-2.175,1.316-5.323
					c0.869-3.788,1.725-14.836,1.725-14.836c0-8.368-5.013-12.265-11.498-11.72C67.832,762.816,61.422,759.887,61.418,774.315z"></path>
          <path fill="#423B34" d="M69.635,815.71v6.688h12.324l-2.97-4.836c-0.697-1.137-2.119-1.853-3.675-1.853H69.635L69.635,815.71z"></path>
        </g>
        <g id="upper_left_2_" class="s-cow-move-leg-upper">
          <path
            fill="#8C8279"
            d="M160.102,784.362l-0.092,10.917c-0.01,1.228,0.799,2.309,2.006,2.903
					c1.269,0.622,2.067,1.721,2.057,2.924l-0.091,10.932c-0.015,1.849,1.812,3.361,4.081,3.383l-0.056,6.69l12.323,0.12
					l-2.932-4.869c-0.685-1.14-2.102-1.873-3.659-1.889l-1.57-0.014l0.119-14.271c0.01-1.205,0.824-2.289,2.104-2.89
					c1.218-0.564,2.042-1.633,2.052-2.862l0.139-16.721h0.002c0-0.007,0.003-0.015,0.003-0.022c0.03-0.302,0.048-0.611,0.05-0.925
					c0.042-4.98-3.617-9.057-8.167-9.099c-4.313-0.042-7.883,3.549-8.284,8.162c-0.005,0.076-0.011,0.15-0.017,0.226l-0.062,7.303
					h-0.007V784.362L160.102,784.362z"></path>
          <path fill="#423B34" d="M177.581,817.559l2.972,4.84h-12.324v-6.691h5.676C175.462,815.71,176.885,816.425,177.581,817.559z"></path>
        </g>
      </g>
      <path
        fill="#E2DEDC"
        d="M61.421,752.168v26.759h123.239c0.104,0,0.211,0,0.316-0.004c0.083,0,0.164-0.002,0.247-0.005
			c0.043,0,0.087-0.003,0.126-0.003c0.193-0.005,0.386-0.011,0.579-0.018c0.11-0.004,0.22-0.009,0.331-0.014
			c0.04-0.003,0.08-0.006,0.12-0.008c0.06-0.003,0.118-0.006,0.177-0.011c0.207-0.01,0.41-0.026,0.615-0.045
			c0.014-0.002,0.023-0.002,0.032-0.002c0.038-0.003,0.075-0.005,0.113-0.011c0.027,0,0.051-0.003,0.075-0.009
			c0.136-0.011,0.273-0.021,0.407-0.036c0.097-0.009,0.191-0.017,0.284-0.028c0.081-0.011,0.161-0.021,0.242-0.03
			c0.147-0.015,0.294-0.036,0.442-0.057c0.035-0.007,0.07-0.011,0.107-0.016c0.035-0.007,0.069-0.011,0.104-0.016
			s0.067-0.012,0.097-0.014c0.163-0.024,0.327-0.05,0.491-0.076c0.03-0.005,0.059-0.011,0.089-0.016
			c0.391-0.063,0.78-0.137,1.164-0.219c0.394-0.081,0.786-0.17,1.168-0.269c0.58-0.148,1.152-0.311,1.71-0.493
			c0.123-0.039,0.244-0.078,0.364-0.12c0.25-0.08,0.496-0.167,0.743-0.26c0.167-0.061,0.335-0.127,0.503-0.189
			c0.021-0.011,0.042-0.019,0.063-0.025c0.172-0.069,0.341-0.138,0.51-0.208c0.164-0.066,0.325-0.137,0.483-0.208
			c0.54-0.236,1.067-0.488,1.582-0.756c0.221-0.116,0.438-0.234,0.653-0.354c0.021-0.011,0.045-0.024,0.066-0.036
			c0.191-0.109,0.379-0.217,0.566-0.33c0.03-0.018,0.059-0.036,0.089-0.053c0.187-0.112,0.372-0.229,0.557-0.345
			c0.072-0.049,0.142-0.094,0.215-0.14c0.142-0.092,0.282-0.187,0.421-0.281c0.027-0.021,0.056-0.04,0.086-0.061
			c0.195-0.135,0.389-0.271,0.579-0.412c0.19-0.14,0.38-0.283,0.566-0.429c0.032-0.025,0.063-0.05,0.094-0.075
			c0.145-0.117,0.293-0.233,0.436-0.354c0.042-0.033,0.083-0.07,0.125-0.104c0.171-0.144,0.341-0.289,0.507-0.438
			c0.48-0.433,0.939-0.88,1.374-1.345c0.088-0.096,0.174-0.188,0.26-0.283c0.121-0.134,0.241-0.271,0.357-0.407
			c0.166-0.195,0.33-0.392,0.488-0.591c0.523-0.659,1.001-1.348,1.427-2.059c0.072-0.119,0.143-0.237,0.209-0.357
			c0.07-0.118,0.137-0.24,0.202-0.358c0.168-0.314,0.33-0.632,0.482-0.954c0.029-0.068,0.062-0.139,0.097-0.206
			c0.008-0.01,0.01-0.021,0.014-0.034c0.067-0.153,0.134-0.308,0.198-0.462c0.111-0.262,0.212-0.527,0.306-0.793
			c0.041-0.105,0.076-0.211,0.11-0.315c0.016-0.048,0.032-0.092,0.048-0.14c0.038-0.118,0.075-0.236,0.11-0.356
			c0.042-0.14,0.085-0.28,0.123-0.422c0.054-0.196,0.105-0.39,0.15-0.586c0.057-0.235,0.108-0.473,0.15-0.707
			c0.017-0.076,0.03-0.153,0.043-0.229c0.018-0.105,0.038-0.21,0.054-0.316c0.019-0.116,0.035-0.234,0.051-0.353
			c0.014-0.1,0.027-0.2,0.037-0.302c0.014-0.095,0.024-0.191,0.032-0.288c0.022-0.214,0.039-0.429,0.052-0.646
			c0.007-0.151,0.015-0.305,0.021-0.459v-0.01c0.005-0.171,0.008-0.343,0.008-0.515v-9.884l8.192,3.953
			c1.072-1.518,3.458-1.724,5.321-0.457l20.259,13.743c3.73,2.531,8.498,2.119,10.646-0.917l2.278-3.218
			c1.032-1.459,1.312-3.341,0.774-5.232l-8.247-29.048c-1.516-5.321-5.196-10.237-10.242-13.662l-4.501-3.053
			c-2.729-1.852-6.132-2.185-8.627-0.848l-23.727,12.698c-2.674,1.432-5.691,2.222-8.841,2.397c-0.124,0.15-0.25,0.298-0.374,0.447
			c-2.28-0.216-4.576-0.291-6.834-0.295c-0.097,0-0.172-0.025-0.233-0.07h-28.962c-0.049,0.002-0.095,0.002-0.143,0.002H94.432
			c-0.151,0-0.298,0-0.448,0.004c-0.092,0-0.18,0.001-0.271,0.001c-0.104,0.003-0.209,0.007-0.313,0.009
			c-0.103,0.002-0.205,0.007-0.309,0.008c-0.084,0-0.167,0.002-0.25,0.008h-0.018c-0.056,0.002-0.112,0.002-0.166,0.006
			c-0.244,0.008-0.492,0.021-0.735,0.033c-0.16,0.011-0.322,0.02-0.483,0.033c-0.041,0-0.078,0.001-0.118,0.007
			c-0.333,0.022-0.663,0.052-0.993,0.084c-0.168,0.015-0.34,0.034-0.509,0.052c-0.934,0.103-1.854,0.235-2.757,0.404
			c-0.188,0.035-0.379,0.072-0.569,0.108c-0.019,0.003-0.035,0.005-0.054,0.011c-0.188,0.037-0.375,0.076-0.563,0.118
			c-0.196,0.039-0.392,0.084-0.587,0.128c-0.26,0.062-0.518,0.124-0.775,0.189c-0.22,0.056-0.438,0.112-0.651,0.171
			c-0.057,0.015-0.113,0.028-0.17,0.047c-0.238,0.066-0.472,0.131-0.705,0.202c-1.259,0.377-2.481,0.812-3.662,1.303
			c-0.28,0.117-0.555,0.237-0.832,0.36c-0.072,0.031-0.145,0.065-0.218,0.101c-0.182,0.081-0.364,0.164-0.544,0.255
			c-0.088,0.039-0.174,0.081-0.259,0.123c-0.191,0.092-0.379,0.183-0.564,0.279c-0.086,0.04-0.172,0.085-0.254,0.129
			c-2.254,1.169-4.323,2.557-6.157,4.123c-0.092,0.077-0.183,0.156-0.271,0.235c-1.895,1.653-3.535,3.509-4.87,5.516
			c-0.115,0.176-0.228,0.353-0.34,0.528c-0.301,0.479-0.588,0.967-0.854,1.467c-0.107,0.197-0.212,0.399-0.314,0.6
			c-0.126,0.251-0.246,0.503-0.361,0.761c-0.058,0.121-0.113,0.242-0.164,0.365c-0.075,0.166-0.145,0.333-0.215,0.504
			c-0.032,0.078-0.063,0.155-0.093,0.231c-0.296,0.743-0.552,1.5-0.767,2.27c-0.039,0.128-0.074,0.257-0.105,0.386
			c-0.18,0.679-0.325,1.363-0.438,2.061c-0.015,0.096-0.031,0.195-0.045,0.295c-0.029,0.192-0.054,0.386-0.078,0.58
			c-0.025,0.2-0.045,0.4-0.063,0.599c-0.012,0.114-0.023,0.229-0.031,0.343c-0.008,0.09-0.013,0.178-0.019,0.268
			c-0.006,0.073-0.01,0.149-0.012,0.223c-0.008,0.135-0.014,0.271-0.02,0.407c-0.004,0.085-0.008,0.168-0.008,0.253
			c-0.002,0.073-0.005,0.146-0.005,0.221C61.421,751.938,61.421,752.053,61.421,752.168z"></path>
      <path
        fill="#A89F96"
        d="M61.421,752.168v26.755h123.239c0.188,0,0.375-0.002,0.563-0.005c0.043,0,0.087-0.003,0.126-0.003
			c0.193-0.005,0.386-0.011,0.579-0.018c0.153-0.005,0.3-0.017,0.451-0.021c0.06-0.003,0.118-0.006,0.177-0.011
			c0.156-0.01,0.311-0.021,0.464-0.034c0.051-0.003,0.1-0.006,0.151-0.011c0.014-0.002,0.023-0.002,0.032-0.002
			c0.038-0.003,0.075-0.005,0.113-0.011c0.027,0,0.051-0.003,0.075-0.009c0.136-0.011,0.273-0.023,0.407-0.036
			c0.097-0.009,0.191-0.017,0.284-0.028c0.081-0.011,0.161-0.021,0.242-0.03c0.147-0.021,0.294-0.039,0.442-0.059
			c0.038-0.006,0.073-0.009,0.107-0.014c0.035-0.007,0.069-0.011,0.104-0.016s0.067-0.012,0.097-0.014
			c0.163-0.024,0.327-0.05,0.491-0.076c0.03-0.005,0.059-0.011,0.089-0.016c0.391-0.065,0.78-0.14,1.164-0.219
			c0.394-0.083,0.786-0.172,1.168-0.269c0.58-0.148,1.152-0.311,1.71-0.493c0.123-0.039,0.244-0.078,0.364-0.12
			c0.25-0.08,0.496-0.167,0.743-0.26c0.167-0.061,0.335-0.127,0.503-0.189c0.021-0.011,0.042-0.019,0.063-0.025
			c0.172-0.069,0.341-0.138,0.51-0.208c0.164-0.066,0.325-0.137,0.483-0.208c0.54-0.236,1.067-0.488,1.582-0.756
			c0.221-0.116,0.438-0.234,0.653-0.354c0.021-0.011,0.045-0.024,0.066-0.036c0.191-0.109,0.379-0.217,0.566-0.33
			c0.03-0.018,0.059-0.036,0.089-0.053c0.187-0.112,0.372-0.229,0.557-0.345c0.072-0.049,0.142-0.094,0.215-0.14
			c0.142-0.092,0.282-0.187,0.421-0.281c0.027-0.021,0.056-0.04,0.086-0.061c0.195-0.135,0.389-0.271,0.579-0.412
			c0.19-0.14,0.38-0.283,0.566-0.429c0.032-0.025,0.063-0.05,0.094-0.075c0.145-0.117,0.293-0.233,0.436-0.354
			c0.042-0.033,0.083-0.07,0.125-0.104c0.171-0.144,0.341-0.289,0.507-0.438c0.48-0.433,0.939-0.88,1.374-1.345
			c0.088-0.096,0.174-0.188,0.26-0.283c0.121-0.134,0.241-0.271,0.357-0.407c0.166-0.195,0.33-0.392,0.488-0.591
			c0.523-0.659,1.001-1.348,1.427-2.059c0.072-0.119,0.143-0.237,0.209-0.357c0.07-0.118,0.137-0.24,0.202-0.358
			c0.168-0.314,0.33-0.632,0.482-0.954c0.029-0.068,0.062-0.139,0.097-0.206c0.008-0.01,0.01-0.021,0.014-0.034
			c0.067-0.153,0.134-0.308,0.198-0.462c0.111-0.262,0.212-0.527,0.306-0.793c0.041-0.105,0.076-0.211,0.11-0.315
			c0.016-0.048,0.032-0.092,0.048-0.14c0.038-0.118,0.075-0.236,0.11-0.356c0.042-0.14,0.085-0.28,0.123-0.422
			c0.054-0.196,0.105-0.39,0.15-0.586c0.057-0.235,0.108-0.473,0.15-0.707c0.017-0.076,0.03-0.153,0.043-0.229
			c0.018-0.105,0.038-0.21,0.054-0.316c0.019-0.116,0.035-0.234,0.051-0.353c0.014-0.1,0.027-0.2,0.037-0.302
			c0-0.005,0-0.009,0.003-0.014l8.303-7.838c1.075-1.52,3.458-1.723,5.321-0.457l16.782,11.387c0.328-0.32,0.622-0.664,0.89-1.043
			l3.099-4.379c1.403-1.982,1.784-4.544,1.054-7.111l-3.214-11.302c0.298-0.238,0.566-0.518,0.792-0.835
			c1.612-2.277,0.649-5.663-2.149-7.559c-0.392-0.266-0.8-0.482-1.215-0.665l-5.429-19.132c-0.118-0.395-0.241-0.794-0.37-1.19
			v-0.002c-2.585-1.443-5.617-1.62-7.897-0.402l-23.727,12.697c-2.674,1.433-5.691,2.22-8.841,2.396
			c-0.125,0.153-0.249,0.304-0.375,0.453c-2.28-0.216-4.576-0.291-6.834-0.295c-0.097,0-0.172-0.025-0.233-0.07h-28.82
			c0.05,0,0.099,0,0.146-0.002c0.065,0,0.127,0,0.188-0.003c0.064,0,0.125,0,0.187-0.006c0.067-0.003,0.137-0.003,0.204-0.009
			c0.069-0.005,0.14-0.007,0.207-0.01c0.314-0.013,0.625-0.031,0.934-0.059c-0.756,0.059-1.52,0.088-2.294,0.088H94.284
			c-0.099,0-0.202,0-0.3,0.006c-0.092,0-0.18,0.001-0.271,0.001c-0.104,0.003-0.209,0.007-0.313,0.009
			c-0.103,0.002-0.205,0.007-0.309,0.008c-0.084,0-0.167,0.002-0.25,0.008h-0.018c-0.056,0.002-0.112,0.002-0.166,0.006
			c-0.244,0.008-0.492,0.021-0.735,0.033c-0.16,0.011-0.322,0.02-0.483,0.033c-0.041,0-0.078,0.001-0.118,0.007
			c-0.333,0.022-0.663,0.052-0.993,0.084c-0.168,0.015-0.34,0.034-0.509,0.052c-0.934,0.103-1.854,0.235-2.757,0.404
			c-0.188,0.035-0.379,0.072-0.569,0.108c-0.019,0.003-0.035,0.005-0.054,0.011c-0.188,0.037-0.375,0.076-0.563,0.118
			c-0.196,0.039-0.392,0.084-0.587,0.128c-0.26,0.062-0.518,0.124-0.775,0.189c-0.22,0.056-0.438,0.112-0.651,0.171
			c-0.057,0.015-0.113,0.028-0.17,0.047c-0.238,0.066-0.472,0.131-0.705,0.202c-1.259,0.377-2.481,0.812-3.662,1.303
			c-0.28,0.117-0.555,0.237-0.832,0.36c-0.072,0.031-0.145,0.065-0.218,0.101c-0.182,0.081-0.364,0.164-0.544,0.255
			c-0.088,0.039-0.174,0.081-0.259,0.123c-0.191,0.092-0.379,0.183-0.564,0.279c-0.086,0.04-0.172,0.085-0.254,0.129
			c-2.254,1.169-4.323,2.557-6.157,4.123c-0.092,0.077-0.183,0.156-0.271,0.235c-1.895,1.653-3.535,3.509-4.87,5.516
			c-0.115,0.176-0.228,0.353-0.34,0.528c-0.301,0.479-0.588,0.967-0.854,1.467c-0.107,0.197-0.212,0.399-0.314,0.6
			c-0.126,0.251-0.246,0.503-0.361,0.761c-0.058,0.121-0.113,0.242-0.164,0.365c-0.075,0.166-0.145,0.333-0.215,0.504
			c-0.032,0.078-0.063,0.155-0.093,0.231c-0.296,0.743-0.552,1.5-0.767,2.27c-0.039,0.128-0.074,0.257-0.105,0.386
			c-0.18,0.679-0.325,1.363-0.438,2.061c-0.015,0.096-0.031,0.195-0.045,0.295c-0.029,0.192-0.054,0.386-0.078,0.58
			c-0.025,0.2-0.045,0.4-0.063,0.599c-0.012,0.114-0.023,0.229-0.031,0.343c-0.008,0.09-0.013,0.178-0.019,0.268
			c-0.006,0.073-0.01,0.149-0.012,0.223c-0.008,0.135-0.014,0.271-0.02,0.407c-0.004,0.085-0.008,0.168-0.008,0.253
			c-0.002,0.073-0.005,0.146-0.005,0.221C61.421,751.938,61.421,752.053,61.421,752.168z"></path>
      <path
        fill="#302E2C"
        d="M93.604,748.828h74.771c1.958,0,3.879-0.102,5.749-0.349h0.002c15.381,1.589,32.184-12.733,32.184-12.733
			c10.91-9.74,25.572-18.16,25.572-18.16c6.438-0.588,12.34,6.852,12.34,6.852c2.682,1.011,2.339-1.366,2.339-1.366l-2.044-3.097
			c-1.494-4.156-12.954-10.019-12.954-10.019c-3.155-1.758-7.886,1.074-7.886,1.074l-15.379,8.231
			c-13.57,8.616-22.911,6.224-22.911,6.224l-29.195-0.07c-0.049,0.002-0.095,0.002-0.143,0.002H94.432c-0.151,0-0.298,0-0.448,0.004
			c-0.092,0-0.18,0.001-0.271,0.001c-0.104,0.003-0.209,0.007-0.313,0.009c-0.103,0.002-0.205,0.007-0.309,0.008
			c-0.148,0.005-0.295,0.01-0.443,0.019C74.141,726.264,75.075,748.827,93.604,748.828z"></path>
      <path fill="#8C8279" d="M219.991,751.268c-20.722,9.015-34.492,7.893-34.492,7.893H73.75c-6.858,0-12.415,5.309-12.415,11.856
			v7.906H185.5C185.5,778.923,205.238,781.033,219.991,751.268z"></path>
      <path fill="#726860" d="M106.607,762.202c10.777,0,21.375,2.236,30.798,6.499l22.606,10.227h-53.404V762.202L106.607,762.202z"></path>
      <path
        fill="#B58876"
        d="M77.853,778.927v10.036h8.214c4.196,0,8.148-0.854,11.606-2.36l0.531,2.21
			c0.092,0.382,0.456,0.613,0.815,0.514c0.3-0.084,0.501-0.374,0.501-0.694c0-0.061-0.008-0.122-0.022-0.181l-0.584-2.426
			c0.887-0.442,1.739-0.93,2.546-1.457l1.687,2.128c0.24,0.301,0.662,0.338,0.941,0.08c0.156-0.143,0.236-0.345,0.236-0.551
			c0-0.164-0.053-0.327-0.161-0.462l-1.572-1.979c0.845-0.624,1.64-1.295,2.374-2.009l2.028,1.478
			c0.306,0.225,0.722,0.139,0.926-0.191c0.078-0.123,0.117-0.262,0.117-0.402c0-0.229-0.103-0.453-0.292-0.593l-1.797-1.312
			c2.999-3.323,4.767-7.426,4.767-11.863v-6.69H98.393C87.047,762.202,77.852,769.691,77.853,778.927z"></path>
      <path fill="#C69E91" d="M98.392,762.202L98.392,762.202v5.019c0,6.463-6.437,11.703-14.377,11.703h-6.162l0,0
			C77.853,769.69,87.047,762.202,98.392,762.202z"></path>
      <path
        fill="#998C6B"
        d="M243.308,709.405l16.883,11.455c-2.148,3.036-6.912,3.444-10.643,0.913l-10.13-6.873l-5.839,8.249
			c-1.073,1.519-3.457,1.725-5.322,0.458c-1.865-1.264-2.505-3.522-1.431-5.039l5.839-8.25
			C234.812,707.285,239.578,706.875,243.308,709.405z"></path>
      <path fill="#C9C1A7" d="M243.308,709.405l15.972,10.836c-2.331,0.851-5.289,0.479-7.786-1.215l-15.972-10.837
			C237.85,707.339,240.81,707.71,243.308,709.405z"></path>
      <path fill="#66625E" d="M239.417,714.901l-5.839,8.249c-1.074,1.518-3.456,1.725-5.322,0.458c-1.865-1.265-2.506-3.52-1.43-5.038
			l5.838-8.249L239.417,714.901z"></path>
      <path fill="#3F3B37" d="M238.131,734.373c-0.932-0.633-2.124-0.53-2.66,0.229c-0.538,0.76-0.217,1.886,0.716,2.519
			c0.931,0.633,2.122,0.531,2.659-0.229C239.383,736.133,239.063,735.006,238.131,734.373z"></path>
      <path fill="#B29A90" d="M257.005,759.383c-0.105,0.98-0.437,1.901-0.996,2.692l-2.281,3.22c-2.148,3.037-6.914,3.449-10.645,0.917
			l5.836-8.245c1.076-1.521,3.462-1.726,5.326-0.462l2.762,1.874L257.005,759.383z"></path>
      <path
        fill="#D8BFB8"
        d="M257.005,759.383L257.005,759.383c-0.105,0.98-0.437,1.901-0.996,2.692l-2.281,3.22
			c-0.072,0.104-0.148,0.202-0.223,0.297c-1.362,1.677-4.531-0.637-3.289-2.392l2.437-3.442
			C253.531,758.517,255.479,758.348,257.005,759.383z"></path>
      <g id="spots">
        <path id="XMLID_2217_" fill="#3F3B37" d="M96.365,742.433h16.329c3.606,0,6.532,2.864,6.532,6.395
				c0,3.531-2.925,6.396-6.532,6.396H96.365c-3.607,0-6.53-2.864-6.53-6.396C89.834,745.297,92.757,742.433,96.365,742.433z"></path>
        <path id="XMLID_3_" fill="#3F3B37" d="M176.808,763.677h9.733c2.15,0,3.895,1.118,3.895,2.497c0,1.377-1.744,2.495-3.895,2.495
				h-9.733c-2.15,0-3.894-1.118-3.894-2.495C172.914,764.795,174.658,763.677,176.808,763.677z"></path>
        <path id="XMLID_1_" fill="#3F3B37" d="M172.879,740.698h19.453c4.297,0,7.781,4.359,7.781,9.737c0,5.38-3.484,9.738-7.781,9.738
				h-19.453c-4.297,0-7.782-4.358-7.782-9.738C165.098,745.057,168.582,740.698,172.879,740.698z"></path>
        <path id="XMLID_2_" fill="#3F3B37" d="M197.232,761.828h2.057c0.454,0,0.823,0.449,0.823,1.001c0,0.554-0.369,1.001-0.823,1.001
				h-2.057c-0.455,0-0.822-0.447-0.822-1.001C196.41,762.277,196.778,761.828,197.232,761.828z"></path>
      </g>
    </g>
    <g id="cow_1">
      <path
        class="s-cow-grass-chew"
        fill="#54892E"
        d="M488.92,831.156c-0.145,3.53,7.29,17.459-0.617,26.016c4.707-9.849-0.599-23.161-4.565-32.74
			c-14.521-5.394-24.048-7.127-31.379-1.143c3.856-12.583,24.996-4.434,30.632-2.543c0.158,0.052,0.3,0.096,0.43,0.139
			c-0.112-0.06-0.226-0.117-0.35-0.177c-11.364-5.84-31.853-9.993-33.979-25.061c4.755,9.77,14.82,15.09,31.535,20.284
			c-1.962-2.938-16.183-9.805-14.843-21.381c1.992,10.636,13.929,18.225,22.757,23.614c0.059,0.032,0.112,0.069,0.171,0.102
			c0.783,1.235,1.548,2.424,2.3,3.561c8.746,13.318,15.482,20.582,25.079,20.057c-10.822,8.101-23.48-12.226-26.5-16.381
			c5.627,11.458,20.086,27.066,12.85,40.631C504.351,855.436,499.362,845.202,488.92,831.156z"></path>
      <path fill="#3F3B37" d="M794.333,869.043c0,3.17,3.092,5.741,6.908,5.741l0,0c3.814,0,6.908-2.571,6.908-5.741v-57.437
			c0-3.17-3.092-5.744-6.908-5.744h-6.908V869.043z"></path>
      <g id="legs_1_">
        <g id="lower_right_1_">
          <path
            fill="#594B42"
            d="M763.292,840.327v40.201c0,2.112-1.369,3.956-3.41,4.957c-2.145,1.043-3.498,2.923-3.498,4.987v18.77
					c0,3.179-3.092,5.748-6.908,5.748v11.488h-20.721l4.998-8.31c1.17-1.95,3.561-3.179,6.178-3.179h2.641v-24.515
					c0-2.067-1.357-3.937-3.498-4.986c-2.041-1.001-3.412-2.843-3.412-4.956v-40.205h27.629v-0.001H763.292z"></path>
          <path fill="#302C28" d="M739.89,914.988c-2.617,0-5.008,1.229-6.178,3.181l-4.998,8.305h20.721v-11.485H739.89L739.89,914.988z"></path>
        </g>
        <g id="lower_left_1_">
          <path
            fill="#594B42"
            d="M587.113,880.532c0,2.111,1.369,3.956,3.411,4.952c2.142,1.048,3.498,2.924,3.498,4.989v24.515h-2.639
					c-2.618,0-5.009,1.229-6.178,3.175l-4.997,8.313h20.722v-11.488c3.813,0,6.907-2.568,6.907-5.748v-18.769
					c0-2.063,1.355-3.938,3.498-4.987c2.041-1.002,3.412-2.844,3.412-4.956v-40.201h-27.631L587.113,880.532L587.113,880.532z"></path>
          <path fill="#302C28" d="M591.383,914.988h9.546v11.485h-20.723l4.998-8.305C586.374,916.214,588.765,914.988,591.383,914.988z"></path>
        </g>
        <g id="uppper_right_1_">
          <path
            fill="#8C8279"
            d="M801.243,843.898v36.516c0,2.09-1.373,3.921-3.412,4.906c-2.141,1.046-3.494,2.903-3.494,4.953v18.61
					c0,3.15-3.1,5.7-6.912,5.7v11.397h-20.721l4.998-8.242c1.168-1.935,3.561-3.153,6.178-3.153h2.639v-24.311
					c0-2.046-1.354-3.909-3.498-4.945c-2.041-0.991-5.203-4.717-5.203-6.812c0,0-1-3.734-2.213-9.142
					c-1.461-6.507-2.9-25.478-2.9-25.478c0-14.373,8.43-21.065,19.334-20.128C790.458,824.149,801.235,819.12,801.243,843.898z"></path>
          <path fill="#423B34" d="M787.427,914.988v11.485h-20.723l4.994-8.305c1.172-1.951,3.563-3.181,6.18-3.181H787.427
					L787.427,914.988z"></path>
        </g>
        <g id="upper_left_1_">
          <path
            fill="#8C8279"
            d="M635.315,861.151l0.153,18.747c0.017,2.109-1.343,3.967-3.373,4.986
					c-2.133,1.069-3.475,2.957-3.458,5.022l0.153,18.772c0.025,3.175-3.047,5.772-6.86,5.81l0.093,11.491l-20.72,0.203l4.93-8.359
					c1.151-1.957,3.535-3.217,6.152-3.243l2.639-0.024l-0.2-24.509c-0.017-2.068-1.385-3.932-3.539-4.961
					c-2.047-0.973-3.433-2.806-3.45-4.919l-0.233-28.713h-0.005c0-0.013-0.004-0.027-0.004-0.037
					c-0.051-0.521-0.08-1.053-0.084-1.59c-0.07-8.555,6.081-15.553,13.734-15.627c7.252-0.071,13.253,6.096,13.929,14.02
					c0.009,0.129,0.019,0.258,0.028,0.388l0.103,12.541h0.013V861.151L635.315,861.151z"></path>
          <path fill="#423B34" d="M605.926,918.163l-4.997,8.311h20.721v-11.489h-9.544C609.488,914.988,607.095,916.214,605.926,918.163z
					"></path>
        </g>
      </g>
      <path
        fill="#E2DEDC"
        d="M801.237,805.865v45.951H594.021c-0.176,0-0.356,0-0.533-0.004c-0.14,0-0.275-0.005-0.415-0.009
			c-0.072,0-0.145-0.005-0.212-0.005c-0.325-0.01-0.649-0.019-0.975-0.031c-0.185-0.005-0.37-0.015-0.555-0.023
			c-0.067-0.004-0.135-0.009-0.203-0.013c-0.099-0.005-0.198-0.01-0.297-0.019c-0.347-0.018-0.69-0.045-1.033-0.077
			c-0.023-0.004-0.041-0.004-0.054-0.004c-0.063-0.005-0.126-0.009-0.189-0.018c-0.045,0-0.086-0.006-0.126-0.015
			c-0.23-0.018-0.46-0.036-0.686-0.063c-0.163-0.014-0.32-0.027-0.478-0.05c-0.135-0.018-0.271-0.036-0.406-0.05
			c-0.248-0.027-0.496-0.063-0.744-0.1c-0.059-0.009-0.117-0.018-0.18-0.026c-0.059-0.01-0.117-0.019-0.176-0.027
			s-0.113-0.019-0.163-0.022c-0.275-0.041-0.55-0.086-0.825-0.131c-0.05-0.009-0.099-0.019-0.149-0.027
			c-0.659-0.108-1.313-0.234-1.958-0.374c-0.663-0.14-1.321-0.293-1.966-0.464c-0.974-0.253-1.935-0.532-2.873-0.845
			c-0.208-0.067-0.411-0.135-0.613-0.207c-0.42-0.14-0.834-0.288-1.25-0.446c-0.28-0.104-0.564-0.217-0.844-0.325
			c-0.036-0.018-0.072-0.031-0.108-0.045c-0.288-0.117-0.573-0.234-0.856-0.355c-0.275-0.113-0.546-0.235-0.812-0.357
			c-0.907-0.405-1.795-0.838-2.661-1.298c-0.37-0.199-0.735-0.402-1.096-0.609c-0.036-0.018-0.077-0.041-0.112-0.063
			c-0.32-0.186-0.636-0.37-0.952-0.564c-0.05-0.031-0.1-0.063-0.149-0.091c-0.316-0.193-0.627-0.392-0.938-0.596
			c-0.122-0.081-0.239-0.157-0.36-0.238c-0.239-0.157-0.474-0.319-0.708-0.482c-0.045-0.036-0.095-0.068-0.144-0.104
			c-0.33-0.229-0.654-0.464-0.975-0.707c-0.32-0.24-0.64-0.487-0.952-0.735c-0.054-0.045-0.104-0.086-0.158-0.131
			c-0.244-0.199-0.492-0.401-0.731-0.605c-0.072-0.058-0.14-0.121-0.212-0.18c-0.289-0.248-0.573-0.496-0.852-0.753
			c-0.808-0.744-1.579-1.512-2.31-2.31c-0.148-0.162-0.293-0.324-0.438-0.487c-0.203-0.229-0.406-0.464-0.6-0.698
			c-0.28-0.334-0.555-0.673-0.821-1.015c-0.88-1.133-1.683-2.314-2.4-3.536c-0.122-0.204-0.239-0.406-0.352-0.614
			c-0.117-0.203-0.23-0.41-0.338-0.613c-0.284-0.541-0.555-1.087-0.812-1.642c-0.049-0.117-0.104-0.234-0.162-0.352
			c-0.014-0.019-0.018-0.036-0.022-0.06c-0.113-0.262-0.226-0.527-0.334-0.793c-0.185-0.451-0.356-0.907-0.514-1.362
			c-0.068-0.181-0.126-0.361-0.185-0.541c-0.027-0.082-0.054-0.158-0.081-0.239c-0.063-0.203-0.126-0.406-0.185-0.613
			c-0.072-0.239-0.144-0.482-0.208-0.726c-0.09-0.334-0.176-0.668-0.252-1.007c-0.095-0.401-0.18-0.808-0.252-1.213
			c-0.027-0.131-0.05-0.262-0.072-0.393c-0.031-0.181-0.063-0.361-0.09-0.545c-0.031-0.199-0.059-0.402-0.085-0.605
			c-0.022-0.171-0.045-0.343-0.063-0.519c-0.023-0.162-0.041-0.329-0.054-0.496c-0.036-0.365-0.063-0.735-0.086-1.105
			c-0.014-0.261-0.027-0.522-0.036-0.789v-0.018c-0.009-0.293-0.014-0.587-0.014-0.884V800.38l-13.774,6.788
			c-1.804-2.606-5.813-2.959-8.948-0.785l-34.062,23.603c-6.274,4.349-14.289,3.64-17.901-1.574l-3.83-5.525
			c-1.736-2.507-2.206-5.74-1.303-8.988l13.869-49.885c2.548-9.138,8.737-17.581,17.22-23.462l7.568-5.242
			c4.587-3.179,10.311-3.752,14.505-1.456l39.894,21.808c4.497,2.458,9.571,3.815,14.866,4.117c0.208,0.258,0.419,0.511,0.627,0.768
			c3.834-0.37,7.695-0.501,11.492-0.506c0.163,0,0.289-0.045,0.393-0.121h48.698c0.081,0.004,0.158,0.004,0.239,0.004h103.605
			c0.254,0,0.502,0,0.754,0.005c0.154,0,0.303,0.004,0.455,0.004c0.176,0.005,0.352,0.01,0.527,0.015
			c0.172,0.004,0.344,0.009,0.52,0.013c0.141,0,0.279,0.005,0.42,0.014h0.031c0.094,0.005,0.189,0.005,0.279,0.01
			c0.41,0.013,0.826,0.036,1.236,0.058c0.27,0.019,0.541,0.032,0.813,0.055c0.066,0,0.131,0.005,0.197,0.014
			c0.561,0.04,1.115,0.09,1.67,0.145c0.283,0.026,0.572,0.059,0.855,0.09c1.57,0.176,3.117,0.405,4.637,0.694
			c0.316,0.059,0.637,0.122,0.957,0.186c0.031,0.004,0.059,0.009,0.09,0.018c0.316,0.063,0.631,0.131,0.947,0.203
			c0.33,0.067,0.658,0.145,0.988,0.221c0.438,0.104,0.869,0.212,1.303,0.325c0.369,0.095,0.736,0.193,1.096,0.293
			c0.096,0.026,0.189,0.049,0.285,0.081c0.4,0.112,0.793,0.226,1.186,0.347c2.115,0.646,4.172,1.394,6.156,2.238
			c0.471,0.198,0.934,0.405,1.398,0.617c0.121,0.055,0.244,0.112,0.365,0.172c0.307,0.14,0.613,0.283,0.916,0.438
			c0.148,0.067,0.293,0.14,0.438,0.212c0.32,0.157,0.637,0.315,0.947,0.482c0.145,0.067,0.289,0.145,0.428,0.221
			c3.789,2.007,7.268,4.389,10.352,7.081c0.154,0.132,0.307,0.267,0.455,0.402c3.186,2.841,5.941,6.025,8.188,9.472
			c0.193,0.302,0.383,0.604,0.572,0.906c0.506,0.825,0.988,1.664,1.434,2.521c0.182,0.339,0.357,0.686,0.529,1.029
			c0.211,0.433,0.414,0.865,0.607,1.308c0.096,0.208,0.189,0.415,0.275,0.627c0.127,0.284,0.244,0.572,0.361,0.866
			c0.055,0.135,0.107,0.266,0.158,0.396c0.496,1.276,0.928,2.575,1.289,3.896c0.064,0.222,0.123,0.442,0.176,0.664
			c0.303,1.163,0.547,2.34,0.736,3.536c0.025,0.166,0.053,0.338,0.076,0.509c0.049,0.329,0.09,0.663,0.131,0.997
			c0.041,0.343,0.076,0.686,0.107,1.028c0.02,0.194,0.037,0.393,0.051,0.587c0.014,0.153,0.021,0.306,0.031,0.459
			c0.01,0.127,0.018,0.258,0.021,0.384c0.014,0.23,0.023,0.465,0.033,0.699c0.008,0.145,0.014,0.289,0.014,0.434
			c0.004,0.126,0.008,0.252,0.008,0.379C801.237,805.468,801.237,805.667,801.237,805.865z"></path>
      <path
        fill="#A89F96"
        d="M801.237,805.865v45.947H594.021c-0.316,0-0.631-0.005-0.947-0.009c-0.072,0-0.145-0.005-0.212-0.005
			c-0.325-0.01-0.649-0.019-0.975-0.031c-0.257-0.01-0.505-0.027-0.758-0.036c-0.099-0.005-0.198-0.01-0.297-0.019
			c-0.262-0.018-0.523-0.036-0.78-0.059c-0.085-0.004-0.167-0.01-0.252-0.019c-0.023-0.004-0.041-0.004-0.054-0.004
			c-0.063-0.005-0.126-0.009-0.189-0.018c-0.045,0-0.086-0.006-0.126-0.015c-0.23-0.018-0.46-0.04-0.686-0.063
			c-0.163-0.014-0.32-0.027-0.478-0.05c-0.135-0.018-0.271-0.036-0.406-0.05c-0.248-0.036-0.496-0.067-0.744-0.104
			c-0.063-0.009-0.122-0.014-0.18-0.022c-0.059-0.01-0.117-0.019-0.176-0.027s-0.113-0.019-0.163-0.022
			c-0.275-0.041-0.55-0.086-0.825-0.131c-0.05-0.009-0.099-0.019-0.149-0.027c-0.659-0.112-1.313-0.238-1.958-0.374
			c-0.663-0.145-1.321-0.298-1.966-0.464c-0.974-0.253-1.935-0.532-2.873-0.845c-0.208-0.067-0.411-0.135-0.613-0.207
			c-0.42-0.14-0.834-0.288-1.25-0.446c-0.28-0.104-0.564-0.217-0.844-0.325c-0.036-0.018-0.072-0.031-0.108-0.045
			c-0.288-0.117-0.573-0.234-0.856-0.355c-0.275-0.113-0.546-0.235-0.812-0.357c-0.907-0.405-1.795-0.838-2.661-1.298
			c-0.37-0.199-0.735-0.402-1.096-0.609c-0.036-0.018-0.077-0.041-0.112-0.063c-0.32-0.186-0.636-0.37-0.952-0.564
			c-0.05-0.031-0.1-0.063-0.149-0.091c-0.316-0.193-0.627-0.392-0.938-0.596c-0.122-0.081-0.239-0.157-0.36-0.238
			c-0.239-0.157-0.474-0.319-0.708-0.482c-0.045-0.036-0.095-0.068-0.144-0.104c-0.33-0.229-0.654-0.464-0.975-0.707
			c-0.32-0.24-0.64-0.487-0.952-0.735c-0.054-0.045-0.104-0.086-0.158-0.131c-0.244-0.199-0.492-0.401-0.731-0.605
			c-0.072-0.058-0.14-0.121-0.212-0.18c-0.289-0.248-0.573-0.496-0.852-0.753c-0.808-0.744-1.579-1.512-2.31-2.31
			c-0.148-0.162-0.293-0.324-0.438-0.487c-0.203-0.229-0.406-0.464-0.6-0.698c-0.28-0.334-0.555-0.673-0.821-1.015
			c-0.88-1.133-1.683-2.314-2.4-3.536c-0.122-0.204-0.239-0.406-0.352-0.614c-0.117-0.203-0.23-0.41-0.338-0.613
			c-0.284-0.541-0.555-1.087-0.812-1.642c-0.049-0.117-0.104-0.234-0.162-0.352c-0.014-0.019-0.018-0.036-0.022-0.06
			c-0.113-0.262-0.226-0.527-0.334-0.793c-0.185-0.451-0.356-0.907-0.514-1.362c-0.068-0.181-0.126-0.361-0.185-0.541
			c-0.027-0.082-0.054-0.158-0.081-0.239c-0.063-0.203-0.126-0.406-0.185-0.613c-0.072-0.239-0.144-0.482-0.208-0.726
			c-0.09-0.334-0.176-0.668-0.252-1.007c-0.095-0.401-0.18-0.808-0.252-1.213c-0.027-0.131-0.05-0.262-0.072-0.393
			c-0.031-0.181-0.063-0.361-0.09-0.545c-0.031-0.199-0.059-0.402-0.085-0.605c-0.022-0.171-0.045-0.343-0.063-0.519
			c0-0.009,0-0.014-0.005-0.022l-13.959-13.459c-1.809-2.611-5.813-2.959-8.948-0.785l-28.217,19.553
			c-0.55-0.55-1.046-1.141-1.497-1.79l-5.21-7.519c-2.359-3.406-2.999-7.804-1.772-12.214L498.56,785
			c-0.5-0.41-0.951-0.888-1.331-1.434c-2.71-3.911-1.091-9.725,3.613-12.98c0.659-0.456,1.344-0.83,2.043-1.142l9.129-32.857
			c0.198-0.677,0.406-1.362,0.623-2.043v-0.005c4.348-2.48,9.444-2.782,13.278-0.69l39.894,21.808
			c4.497,2.458,9.571,3.812,14.866,4.113c0.212,0.262,0.419,0.52,0.631,0.776c3.834-0.37,7.695-0.501,11.492-0.506
			c0.163,0,0.289-0.045,0.393-0.121h48.458c-0.085,0-0.166,0-0.248-0.005c-0.108,0-0.212,0-0.315-0.004c-0.108,0-0.212,0-0.315-0.01
			c-0.113-0.004-0.23-0.004-0.343-0.014c-0.117-0.009-0.234-0.013-0.348-0.018c-0.527-0.022-1.051-0.055-1.569-0.1
			c1.271,0.1,2.557,0.149,3.856,0.149h103.614c0.168,0,0.34,0,0.506,0.009c0.154,0,0.303,0.004,0.455,0.004
			c0.176,0.005,0.352,0.01,0.527,0.015c0.172,0.004,0.344,0.009,0.52,0.013c0.141,0,0.279,0.005,0.42,0.014h0.031
			c0.094,0.005,0.189,0.005,0.279,0.01c0.41,0.013,0.826,0.036,1.236,0.058c0.27,0.019,0.541,0.032,0.813,0.055
			c0.066,0,0.131,0.005,0.197,0.014c0.561,0.04,1.115,0.09,1.67,0.145c0.283,0.026,0.572,0.059,0.855,0.09
			c1.57,0.176,3.117,0.405,4.637,0.694c0.316,0.059,0.637,0.122,0.957,0.186c0.031,0.004,0.059,0.009,0.09,0.018
			c0.316,0.063,0.631,0.131,0.947,0.203c0.33,0.067,0.658,0.145,0.988,0.221c0.438,0.104,0.869,0.212,1.303,0.325
			c0.369,0.095,0.736,0.193,1.096,0.293c0.096,0.026,0.189,0.049,0.285,0.081c0.4,0.112,0.793,0.226,1.186,0.347
			c2.115,0.646,4.172,1.394,6.156,2.238c0.471,0.198,0.934,0.405,1.398,0.617c0.121,0.055,0.244,0.112,0.365,0.172
			c0.307,0.14,0.613,0.283,0.916,0.438c0.148,0.067,0.293,0.14,0.438,0.212c0.32,0.157,0.637,0.315,0.947,0.482
			c0.145,0.067,0.289,0.145,0.428,0.221c3.789,2.007,7.268,4.389,10.352,7.081c0.154,0.132,0.307,0.267,0.455,0.402
			c3.186,2.841,5.941,6.025,8.188,9.472c0.193,0.302,0.383,0.604,0.572,0.906c0.506,0.825,0.988,1.664,1.434,2.521
			c0.182,0.339,0.357,0.686,0.529,1.029c0.211,0.433,0.414,0.865,0.607,1.308c0.096,0.208,0.189,0.415,0.275,0.627
			c0.127,0.284,0.244,0.572,0.361,0.866c0.055,0.135,0.107,0.266,0.158,0.396c0.496,1.276,0.928,2.575,1.289,3.896
			c0.064,0.222,0.123,0.442,0.176,0.664c0.303,1.163,0.547,2.34,0.736,3.536c0.025,0.166,0.053,0.338,0.076,0.509
			c0.049,0.329,0.09,0.663,0.131,0.997c0.041,0.343,0.076,0.686,0.107,1.028c0.02,0.194,0.037,0.393,0.051,0.587
			c0.014,0.153,0.021,0.306,0.031,0.459c0.01,0.127,0.018,0.258,0.021,0.384c0.014,0.23,0.023,0.465,0.033,0.699
			c0.008,0.145,0.014,0.289,0.014,0.434c0.004,0.126,0.008,0.252,0.008,0.379C801.237,805.468,801.237,805.667,801.237,805.865z"></path>
      <path
        fill="#302E2C"
        d="M747.124,800.127H621.403c-3.292,0-6.522-0.176-9.666-0.6h-0.004
			c-25.862,2.729-54.115-21.866-54.115-21.866c-18.344-16.729-42.997-31.189-42.997-31.189
			c-10.825-1.01-20.748,11.768-20.748,11.768c-4.51,1.737-3.933-2.345-3.933-2.345l3.437-5.322
			c2.512-7.136,21.78-17.202,21.78-17.202c5.304-3.018,13.26,1.845,13.26,1.845l25.858,14.136
			c22.818,14.798,38.522,10.688,38.522,10.688l49.09-0.121c0.081,0.004,0.158,0.004,0.239,0.004h103.605
			c0.254,0,0.502,0,0.754,0.005c0.154,0,0.303,0.004,0.455,0.004c0.176,0.005,0.352,0.01,0.527,0.015
			c0.172,0.004,0.344,0.009,0.52,0.013c0.248,0.009,0.496,0.019,0.744,0.032C779.851,761.375,778.28,800.124,747.124,800.127z"></path>
      <path fill="#8C8279" d="M534.616,804.317c34.842,15.484,57.995,13.556,57.995,13.556h187.898
			c11.531,0.001,20.875,9.115,20.875,20.361v13.578H592.611C592.611,851.812,559.422,855.433,534.616,804.317z"></path>
      <path fill="#726860" d="M725.261,823.095c-18.121,0-35.941,3.841-51.783,11.16l-38.012,17.561h89.795V823.095L725.261,823.095z"></path>
      <path
        fill="#B58876"
        d="M773.608,851.818v17.235h-13.811c-7.055,0-13.701-1.466-19.516-4.051l-0.893,3.792
			c-0.156,0.657-0.768,1.054-1.371,0.883c-0.504-0.144-0.842-0.643-0.842-1.192c0-0.103,0.014-0.208,0.037-0.311l0.982-4.166
			c-1.492-0.759-2.924-1.596-4.281-2.502l-2.836,3.653c-0.404,0.518-1.113,0.582-1.584,0.139c-0.262-0.245-0.396-0.592-0.396-0.944
			c0-0.281,0.088-0.563,0.27-0.794l2.643-3.399c-1.42-1.073-2.756-2.225-3.992-3.45l-3.408,2.539
			c-0.516,0.384-1.215,0.235-1.559-0.329c-0.131-0.212-0.195-0.452-0.195-0.693c0-0.393,0.174-0.776,0.49-1.018l3.021-2.251
			c-5.041-5.708-8.016-12.755-8.016-20.376v-11.487h20.721C758.149,823.095,773.612,835.956,773.608,851.818z"></path>
      <path fill="#C69E91" d="M739.075,823.095L739.075,823.095v8.618c0,11.1,10.822,20.099,24.174,20.099h10.359l0,0
			C773.61,835.955,758.149,823.095,739.075,823.095z"></path>
      <path
        fill="#998C6B"
        d="M495.412,732.424l-28.388,19.672c3.612,5.214,11.621,5.915,17.894,1.568l17.032-11.803l9.817,14.166
			c1.806,2.606,5.813,2.961,8.949,0.788c3.136-2.174,4.212-6.05,2.406-8.655l-9.817-14.167
			C509.695,728.784,501.683,728.081,495.412,732.424z"></path>
      <path fill="#C9C1A7" d="M495.412,732.424l-26.856,18.61c3.919,1.458,8.893,0.821,13.092-2.089l26.854-18.609
			C504.587,728.877,499.612,729.514,495.412,732.424z"></path>
      <path fill="#66625E" d="M501.953,741.864l9.817,14.166c1.806,2.606,5.812,2.961,8.948,0.787c3.136-2.173,4.213-6.045,2.406-8.654
			l-9.817-14.166L501.953,741.864z"></path>
      <path fill="#3F3B37" d="M504.116,775.303c1.567-1.087,3.57-0.909,4.473,0.393c0.904,1.306,0.365,3.239-1.204,4.326
			c-1.566,1.085-3.568,0.912-4.473-0.394C502.011,778.327,502.548,776.389,504.116,775.303z"></path>
      <path fill="#B29A90" d="M472.381,818.253c0.177,1.684,0.734,3.266,1.674,4.624l3.833,5.53c3.612,5.215,11.626,5.922,17.898,1.575
			l-9.813-14.16c-1.808-2.61-5.821-2.965-8.955-0.793l-4.643,3.218L472.381,818.253z"></path>
      <path fill="#D8BFB8" d="M472.381,818.253L472.381,818.253c0.177,1.684,0.734,3.266,1.674,4.624l3.833,5.53
			c0.121,0.177,0.249,0.348,0.375,0.51c2.29,2.88,7.619-1.093,5.53-4.108l-4.096-5.91
			C478.223,816.767,474.946,816.477,472.381,818.253z"></path>
      <g id="spots_1_">
        <path id="XMLID_7_" fill="#3F3B37" d="M742.483,789.146h-27.455c-6.064,0-10.982,4.917-10.982,10.981
				c0,6.065,4.918,10.982,10.982,10.982h27.455c6.064,0,10.98-4.917,10.98-10.982C753.464,794.063,748.548,789.146,742.483,789.146z
				"></path>
        <path id="XMLID_6_" fill="#3F3B37" d="M607.226,825.629h-16.367c-3.615,0-6.547,1.919-6.547,4.287
				c0,2.364,2.932,4.284,6.547,4.284h16.367c3.615,0,6.546-1.92,6.546-4.284C613.772,827.548,610.841,825.629,607.226,825.629z"></path>
        <path id="XMLID_5_" fill="#3F3B37" d="M613.831,786.165h-32.708c-7.225,0-13.083,7.487-13.083,16.724s5.857,16.723,13.083,16.723
				h32.708c7.226,0,13.083-7.486,13.083-16.723S621.056,786.165,613.831,786.165z"></path>
        <path id="XMLID_4_" fill="#3F3B37" d="M572.883,822.454h-3.459c-0.764,0-1.384,0.77-1.384,1.719s0.62,1.718,1.384,1.718h3.459
				c0.764,0,1.383-0.769,1.383-1.718S573.647,822.454,572.883,822.454z"></path>
      </g>
    </g>
  </g>


</svg>
    